<svg xmlns="http://www.w3.org/2000/svg" width="242" height="92" viewBox="0 0 242 92" xmlns:xlink="http://www.w3.org/1999/xlink">
  <defs>
    <polygon id="a" points="16.865 15.968 0 15.968 0 8.015 0 .062 16.865 .062 16.865 15.968"/>
  </defs>
  <g fill="none" fill-rule="evenodd">
    <g transform="translate(0 76)">
      <mask id="b" fill="white">
        <use xlink:href="#a"/>
      </mask>
      <path fill="#FFFFFF" d="M1.17920833 11.4266667L4.13454167 11.4266667 6.97179167 4.82133333C6.231875 3.09653333 5.44483333 1.2512 5.44483333 1.2512 5.412875 1.17653333 5.20704167.625066667 4.860375.538133333 4.79645833.5184 4.72820833.5072 4.65779167.508266667 4.39291667.5104 4.16704167.722666667 4.06629167.946133333L.169 10.0986667C-.0541666667 10.6928.0888333333 11.4266667 1.17920833 11.4266667M3.92545833 11.9162667L.793 11.9162667C.258375 11.9162667 0 11.5829333 0 11.5829333.518375 12.5418667 2.13958333 15.4794667 2.13958333 15.4794667 2.33404167 15.8138667 2.601625 16 3.04416667 16 3.914625 16 5.31320833 15.1130667 5.31320833 15.1130667L10.5327083 11.9162667 3.92545833 11.9162667" mask="url(#b)"/>
      <path fill="#FFFFFF" d="M10.216375,0.496 C10.17575,0.402666667 10.001875,0.0725333333 9.51925,0.0624 C9.524125,0.0624 9.498125,0.0624 9.498125,0.0624 L4.81920833,0.0624 C4.81920833,0.0624 5.474625,0.096 5.77633333,0.778133333 C5.77633333,0.778133333 6.526,2.52693333 7.24045833,4.1936 C9.18829167,8.73813333 12.30125,16 12.30125,16 L16.8653333,16 C16.8653333,16 10.2575417,0.591466667 10.216375,0.496" mask="url(#b)"/>
      <path fill="#FFFFFF" d="M95.8504792,11.000639 C95.8504792,11.5015974 95.4881789,11.8607029 94.999361,11.8607029 C94.5124601,11.8607029 94.1482428,11.5015974 94.1482428,11.000639 C94.1482428,10.5009585 94.5124601,10.1392971 94.999361,10.1392971 C95.4881789,10.1392971 95.8504792,10.5009585 95.8504792,11.000639 Z M96,11.000639 C96,10.4479233 95.5514377,10 94.999361,10 C94.4492013,10 94,10.4479233 94,11.000639 C94,11.5533546 94.4492013,12 94.999361,12 C95.5514377,12 96,11.5533546 96,11.000639 L96,11.000639 Z"/>
      <path fill="#FFFFFF" d="M95.1099656 10.8552064C95.1099656 10.9496817 95 10.9595399 94.8946163 10.9595399L94.8006873 10.9595399 94.8006873 10.7492298 94.9387171 10.7492298C95.0652921 10.7492298 95.1099656 10.7919491 95.1099656 10.8552064zM95.3333333 11.3333333L95.1162658 11.1143972C95.0784651 11.0757856 95.0504009 11.0490861 95.0085911 11.0264941 95.1643757 11.0117067 95.2548683 10.9513247 95.2548683 10.8552064 95.2548683 10.7562128 95.1586483 10.6666667 94.9707904 10.6666667L94.6666667 10.6666667 94.6666667 11.3333333 94.8006873 11.3333333 94.8006873 11.0347094C94.873425 11.0347094 94.9014891 11.0503183 94.9473081 11.0987883L95.1718213 11.3333333 95.3333333 11.3333333 95.3333333 11.3333333zM24.6407982 4.61229409L23.1067997 8.32087853 26.1882483 8.32087853 24.6407982 4.61229409zM29.3333333 12L27.6715447 12 26.7630451 9.7634927 22.5314856 9.7634927 21.6100517 12 20 12 23.9382114 2.66666667 25.3946046 2.66666667 29.3333333 12 29.3333333 12z"/>
      <polyline fill="#FFFFFF" points="44.391 12 42.817 12 42.817 4.188 40 4.188 40 2.667 47.333 2.667 46.729 4.188 44.391 4.188 44.391 12"/>
      <polyline fill="#FFFFFF" points="75.331 4.188 70.323 4.188 70.323 6.561 73.531 6.561 73.531 8.029 70.323 8.029 70.323 10.509 75.333 10.509 75.333 12 68.667 12 68.667 2.667 75.331 2.667 75.331 4.188"/>
      <polygon fill="#FFFFFF" points="85.333 12 86.667 12 86.667 2.667 85.333 2.667"/>
      <path fill="#FFFFFF" d="M80.1153799,4.12044207 C79.2144749,4.12044207 78.4491133,4.39907818 78.4450368,5.0116602 C78.4404508,5.72755673 78.8791834,5.97645078 80.537297,6.52798331 C82.3696807,7.14578323 83.3429435,7.77245359 83.3332618,9.29869072 C83.3230706,11.0185121 82.025217,12 80.1286286,12 C78.7864432,12 77.5838776,11.5543909 76.6666667,10.727353 L77.2368662,9.31225728 C78.0689803,10.0271102 79.0789315,10.5327252 80.1688839,10.5379431 C81.1222738,10.5426392 81.8010099,10.0678099 81.8010099,9.36287095 C81.8010099,8.7742913 81.4687757,8.38242665 79.8616182,7.86167976 C78.0170051,7.24231447 76.9025937,6.59581607 76.9117658,5.05757776 C76.9224666,3.52820989 78.3237612,2.65786338 80.0863349,2.66673382 C81.8489087,2.67560425 82.8410252,3.33462562 82.9908364,3.42489537 L82.437962,4.71163068 C82.0777019,4.51282851 81.2889004,4.12044207 80.1153799,4.12044207"/>
      <polyline fill="#FFFFFF" points="88.692 7.185 92.89 2.667 90.88 2.667 86.667 7.185 91.295 12 93.333 12 88.692 7.185"/>
      <path fill="#FFFFFF" d="M51.9994784 10.544242C50.2260721 10.544242 48.9325286 9.10673969 48.9325286 7.33281174 48.9325286 5.56044857 50.2260721 4.12346783 51.9994784 4.12346783 53.7723632 4.12346783 55.067993 5.56044857 55.067993 7.33281174 55.067993 9.10673969 53.7723632 10.544242 51.9994784 10.544242zM51.9994784 2.66666667C49.4223017 2.66666667 47.3333333 4.75615663 47.3333333 7.33281174 47.3333333 9.91155322 49.4223017 12 51.9994784 12 54.5761335 12 56.6666667 9.91155322 56.6666667 7.33281174 56.6666667 4.75615663 54.5761335 2.66666667 51.9994784 2.66666667L51.9994784 2.66666667zM62.0517582 10.5072062L60.2493337 10.5088247 60.2493337 4.18859345 62.0589803 4.18859345C63.8123979 4.18859345 65.0855472 5.48824663 65.0855472 7.32146435 65.0855472 9.15522158 63.80466 10.5072062 62.0517582 10.5072062zM62.0517582 2.66666667L58.6666667 2.66666667 58.6666667 12 62.0517582 12C64.6001204 12 66.6666667 9.98712909 66.6666667 7.32146435 66.6666667 4.65526012 64.6001204 2.66666667 62.0517582 2.66666667L62.0517582 2.66666667zM38 7.7842267C38 10.5225143 36.367413 12 34 12 31.632587 12 30 10.5225143 30 7.7842267L30 2.66666667 31.6530888 2.66666667 31.6530888 7.97807367C31.6530888 9.58408255 32.6118155 10.5283563 34 10.5283563 35.3892636 10.5283563 36.3474508 9.58408255 36.3474508 7.97807367L36.3474508 2.66666667 38 2.66666667 38 7.7842267"/>
    </g>
    <path fill="#FFFFFF" d="M19.414,12.556 L10.812,12.556 L10.812,14.018 L17.646,14.018 L17.646,20.24 C16.354,22.484 14.28,23.912 11.322,23.912 C7.106,23.912 4.794,21.09 4.794,16.806 L4.794,10.346 C4.794,5.076 7.072,2.288 11.696,2.288 C15.912,2.288 17.238,5.042 17.374,7.252 L19.142,7.252 C18.938,4.328 16.932,0.792 11.628,0.792 C6.052,0.792 2.992,4.26 2.992,10.346 L2.992,16.874 C2.992,22.11 6.188,25.408 11.016,25.408 C14.11,25.408 16.32,24.15 17.782,22.212 L17.952,25 L19.414,25 L19.414,12.556 Z M39.474,2.696 L39.474,1.2 L27.064,1.2 L27.064,25 L39.474,25 L39.474,23.504 L28.832,23.504 L28.832,13.406 L38.726,13.406 L38.726,11.91 L28.832,11.91 L28.832,2.696 L39.474,2.696 Z M61.438,1.2 L61.438,22.756 L48.994,1.234 L48.994,1.2 L46.818,1.2 L46.818,25 L48.416,25 L48.416,3.444 L60.928,25 L63.07,25 L63.07,1.2 L61.438,1.2 Z M84.354,2.696 L84.354,1.2 L71.944,1.2 L71.944,25 L84.354,25 L84.354,23.504 L73.712,23.504 L73.712,13.406 L83.606,13.406 L83.606,11.91 L73.712,11.91 L73.712,2.696 L84.354,2.696 Z M104.448,1.2 L88.196,1.2 L88.196,2.73 L95.438,2.73 L95.438,25 L97.206,25 L97.206,2.73 L104.448,2.73 L104.448,1.2 Z M109.854,25 L111.622,25 L111.622,1.2 L109.854,1.2 L109.854,25 Z M127.296,25.408 C132.702,25.408 134.81,22.212 135.116,18.506 L133.348,18.506 C133.144,21.532 131.58,23.946 127.364,23.946 C123.148,23.946 120.87,20.886 120.87,16.636 L120.87,9.53 C120.87,5.382 123.08,2.288 127.432,2.288 C131.614,2.288 133.076,4.804 133.28,7.66 L135.014,7.66 C134.878,4.26 132.77,0.792 127.432,0.792 C121.958,0.792 119.068,4.566 119.068,9.564 L119.068,16.568 C119.068,21.702 122.06,25.408 127.296,25.408 Z M11.22,60.408 C16.626,60.408 18.734,57.212 19.04,53.506 L17.272,53.506 C17.068,56.532 15.504,58.946 11.288,58.946 C7.072,58.946 4.794,55.886 4.794,51.636 L4.794,44.53 C4.794,40.382 7.004,37.288 11.356,37.288 C15.538,37.288 17,39.804 17.204,42.66 L18.938,42.66 C18.802,39.26 16.694,35.792 11.356,35.792 C5.882,35.792 2.992,39.566 2.992,44.564 L2.992,51.568 C2.992,56.702 5.984,60.408 11.22,60.408 Z M33.048,35.792 C26.758,35.792 24.004,39.974 24.004,45.584 L24.004,50.786 C24.004,56.056 26.69,60.408 33.048,60.408 C39.406,60.408 42.058,56.056 42.058,50.786 L42.058,45.584 C42.058,40.076 39.406,35.792 33.048,35.792 Z M33.048,37.288 C38.25,37.288 40.29,40.858 40.29,45.55 L40.29,50.82 C40.29,55.308 38.216,58.912 33.048,58.912 C27.846,58.912 25.806,55.308 25.806,50.82 L25.806,45.55 C25.806,40.722 27.948,37.288 33.048,37.288 Z M64.124,36.2 L64.124,57.756 L51.68,36.234 L51.68,36.2 L49.504,36.2 L49.504,60 L51.102,60 L51.102,38.444 L63.614,60 L65.756,60 L65.756,36.2 L64.124,36.2 Z M80.92,60.408 C86.938,60.408 88.978,57.314 88.978,54.322 L88.978,53.472 C88.978,50.106 86.938,48.678 83.198,47.42 L79.798,46.264 C76.364,45.108 75.208,44.054 75.208,42.014 L75.208,41.3 C75.208,39.634 76.602,37.288 81.09,37.288 C85.68,37.288 87.108,39.906 87.278,42.354 L89.012,42.354 C88.842,38.886 86.53,35.792 81.09,35.792 C75.446,35.792 73.406,38.92 73.406,41.3 L73.406,42.048 C73.406,44.87 74.868,46.332 78.574,47.59 L81.974,48.746 C85.578,49.97 87.176,50.922 87.176,53.574 L87.176,54.322 C87.176,56.362 85.918,58.878 80.92,58.878 C76.16,58.878 74.358,56.498 74.154,53.642 L72.42,53.642 C72.658,57.552 75.446,60.408 80.92,60.408 Z M108.902,36.2 L92.65,36.2 L92.65,37.73 L99.892,37.73 L99.892,60 L101.66,60 L101.66,37.73 L108.902,37.73 L108.902,36.2 Z M130.05,58.776 C129.064,58.776 128.52,58.47 128.044,57.518 L123.998,49.562 C127.024,48.746 128.826,46.74 128.826,43.918 L128.826,42.286 C128.826,38.58 125.732,36.2 120.87,36.2 L114.308,36.2 L114.308,60 L116.076,60 L116.076,49.936 L120.904,49.936 C121.346,49.936 121.788,49.902 122.23,49.868 L126.48,58.198 C127.228,59.694 128.18,60.238 129.54,60.238 C130.118,60.238 130.458,60.136 130.866,60 L130.866,58.674 C130.662,58.742 130.356,58.776 130.05,58.776 Z M116.076,48.44 L116.076,37.696 L120.836,37.696 C124.644,37.696 127.058,39.464 127.058,42.32 L127.058,43.884 C127.058,46.842 124.78,48.44 120.938,48.44 L116.076,48.44 Z M150.96,36.2 L150.96,54.492 C149.804,56.464 147.696,58.912 143.616,58.912 C139.264,58.912 137.802,55.954 137.802,52.486 L137.802,36.2 L136,36.2 L136,52.384 C136,56.736 138.074,60.408 143.276,60.408 C147.424,60.408 149.736,58.3 150.994,56.6 L151.13,60 L152.728,60 L152.728,36.2 L150.96,36.2 Z M168.402,60.408 C173.808,60.408 175.916,57.212 176.222,53.506 L174.454,53.506 C174.25,56.532 172.686,58.946 168.47,58.946 C164.254,58.946 161.976,55.886 161.976,51.636 L161.976,44.53 C161.976,40.382 164.186,37.288 168.538,37.288 C172.72,37.288 174.182,39.804 174.386,42.66 L176.12,42.66 C175.984,39.26 173.876,35.792 168.538,35.792 C163.064,35.792 160.174,39.566 160.174,44.564 L160.174,51.568 C160.174,56.702 163.166,60.408 168.402,60.408 Z M195.398,36.2 L179.146,36.2 L179.146,37.73 L186.388,37.73 L186.388,60 L188.156,60 L188.156,37.73 L195.398,37.73 L195.398,36.2 Z M208.386,35.792 C202.096,35.792 199.342,39.974 199.342,45.584 L199.342,50.786 C199.342,56.056 202.028,60.408 208.386,60.408 C214.744,60.408 217.396,56.056 217.396,50.786 L217.396,45.584 C217.396,40.076 214.744,35.792 208.386,35.792 Z M208.386,37.288 C213.588,37.288 215.628,40.858 215.628,45.55 L215.628,50.82 C215.628,55.308 213.554,58.912 208.386,58.912 C203.184,58.912 201.144,55.308 201.144,50.82 L201.144,45.55 C201.144,40.722 203.286,37.288 208.386,37.288 Z M240.584,58.776 C239.598,58.776 239.054,58.47 238.578,57.518 L234.532,49.562 C237.558,48.746 239.36,46.74 239.36,43.918 L239.36,42.286 C239.36,38.58 236.266,36.2 231.404,36.2 L224.842,36.2 L224.842,60 L226.61,60 L226.61,49.936 L231.438,49.936 C231.88,49.936 232.322,49.902 232.764,49.868 L237.014,58.198 C237.762,59.694 238.714,60.238 240.074,60.238 C240.652,60.238 240.992,60.136 241.4,60 L241.4,58.674 C241.196,58.742 240.89,58.776 240.584,58.776 Z M226.61,48.44 L226.61,37.696 L231.37,37.696 C235.178,37.696 237.592,39.464 237.592,42.32 L237.592,43.884 C237.592,46.842 235.314,48.44 231.472,48.44 L226.61,48.44 Z"/>
  </g>
</svg>
