<svg xmlns="http://www.w3.org/2000/svg" width="386" height="60" viewBox="0 0 386 60" xmlns:xlink="http://www.w3.org/1999/xlink">
  <defs>
    <polygon id="a" points="25.298 23.952 0 23.952 0 12.023 0 .094 25.298 .094 25.298 23.952"/>
  </defs>
  <g fill="none" fill-rule="evenodd">
    <path fill="#FFFFFF" d="M17.414,12.556 L8.812,12.556 L8.812,14.018 L15.646,14.018 L15.646,20.24 C14.354,22.484 12.28,23.912 9.322,23.912 C5.106,23.912 2.794,21.09 2.794,16.806 L2.794,10.346 C2.794,5.076 5.072,2.288 9.696,2.288 C13.912,2.288 15.238,5.042 15.374,7.252 L17.142,7.252 C16.938,4.328 14.932,0.792 9.628,0.792 C4.052,0.792 0.992,4.26 0.992,10.346 L0.992,16.874 C0.992,22.11 4.188,25.408 9.016,25.408 C12.11,25.408 14.32,24.15 15.782,22.212 L15.952,25 L17.414,25 L17.414,12.556 Z M37.474,2.696 L37.474,1.2 L25.064,1.2 L25.064,25 L37.474,25 L37.474,23.504 L26.832,23.504 L26.832,13.406 L36.726,13.406 L36.726,11.91 L26.832,11.91 L26.832,2.696 L37.474,2.696 Z M59.438,1.2 L59.438,22.756 L46.994,1.234 L46.994,1.2 L44.818,1.2 L44.818,25 L46.416,25 L46.416,3.444 L58.928,25 L61.07,25 L61.07,1.2 L59.438,1.2 Z M82.354,2.696 L82.354,1.2 L69.944,1.2 L69.944,25 L82.354,25 L82.354,23.504 L71.712,23.504 L71.712,13.406 L81.606,13.406 L81.606,11.91 L71.712,11.91 L71.712,2.696 L82.354,2.696 Z M102.448,1.2 L86.196,1.2 L86.196,2.73 L93.438,2.73 L93.438,25 L95.206,25 L95.206,2.73 L102.448,2.73 L102.448,1.2 Z M107.854,25 L109.622,25 L109.622,1.2 L107.854,1.2 L107.854,25 Z M125.296,25.408 C130.702,25.408 132.81,22.212 133.116,18.506 L131.348,18.506 C131.144,21.532 129.58,23.946 125.364,23.946 C121.148,23.946 118.87,20.886 118.87,16.636 L118.87,9.53 C118.87,5.382 121.08,2.288 125.432,2.288 C129.614,2.288 131.076,4.804 131.28,7.66 L133.014,7.66 C132.878,4.26 130.77,0.792 125.432,0.792 C119.958,0.792 117.068,4.566 117.068,9.564 L117.068,16.568 C117.068,21.702 120.06,25.408 125.296,25.408 Z M155.318,25.408 C160.724,25.408 162.832,22.212 163.138,18.506 L161.37,18.506 C161.166,21.532 159.602,23.946 155.386,23.946 C151.17,23.946 148.892,20.886 148.892,16.636 L148.892,9.53 C148.892,5.382 151.102,2.288 155.454,2.288 C159.636,2.288 161.098,4.804 161.302,7.66 L163.036,7.66 C162.9,4.26 160.792,0.792 155.454,0.792 C149.98,0.792 147.09,4.566 147.09,9.564 L147.09,16.568 C147.09,21.702 150.082,25.408 155.318,25.408 Z M177.146,0.792 C170.856,0.792 168.102,4.974 168.102,10.584 L168.102,15.786 C168.102,21.056 170.788,25.408 177.146,25.408 C183.504,25.408 186.156,21.056 186.156,15.786 L186.156,10.584 C186.156,5.076 183.504,0.792 177.146,0.792 Z M177.146,2.288 C182.348,2.288 184.388,5.858 184.388,10.55 L184.388,15.82 C184.388,20.308 182.314,23.912 177.146,23.912 C171.944,23.912 169.904,20.308 169.904,15.82 L169.904,10.55 C169.904,5.722 172.046,2.288 177.146,2.288 Z M208.222,1.2 L208.222,22.756 L195.778,1.234 L195.778,1.2 L193.602,1.2 L193.602,25 L195.2,25 L195.2,3.444 L207.712,25 L209.854,25 L209.854,1.2 L208.222,1.2 Z M225.018,25.408 C231.036,25.408 233.076,22.314 233.076,19.322 L233.076,18.472 C233.076,15.106 231.036,13.678 227.296,12.42 L223.896,11.264 C220.462,10.108 219.306,9.054 219.306,7.014 L219.306,6.3 C219.306,4.634 220.7,2.288 225.188,2.288 C229.778,2.288 231.206,4.906 231.376,7.354 L233.11,7.354 C232.94,3.886 230.628,0.792 225.188,0.792 C219.544,0.792 217.504,3.92 217.504,6.3 L217.504,7.048 C217.504,9.87 218.966,11.332 222.672,12.59 L226.072,13.746 C229.676,14.97 231.274,15.922 231.274,18.574 L231.274,19.322 C231.274,21.362 230.016,23.878 225.018,23.878 C220.258,23.878 218.456,21.498 218.252,18.642 L216.518,18.642 C216.756,22.552 219.544,25.408 225.018,25.408 Z M253,1.2 L236.748,1.2 L236.748,2.73 L243.99,2.73 L243.99,25 L245.758,25 L245.758,2.73 L253,2.73 L253,1.2 Z M274.148,23.776 C273.162,23.776 272.618,23.47 272.142,22.518 L268.096,14.562 C271.122,13.746 272.924,11.74 272.924,8.918 L272.924,7.286 C272.924,3.58 269.83,1.2 264.968,1.2 L258.406,1.2 L258.406,25 L260.174,25 L260.174,14.936 L265.002,14.936 C265.444,14.936 265.886,14.902 266.328,14.868 L270.578,23.198 C271.326,24.694 272.278,25.238 273.638,25.238 C274.216,25.238 274.556,25.136 274.964,25 L274.964,23.674 C274.76,23.742 274.454,23.776 274.148,23.776 Z M260.174,13.44 L260.174,2.696 L264.934,2.696 C268.742,2.696 271.156,4.464 271.156,7.32 L271.156,8.884 C271.156,11.842 268.878,13.44 265.036,13.44 L260.174,13.44 Z M295.058,1.2 L295.058,19.492 C293.902,21.464 291.794,23.912 287.714,23.912 C283.362,23.912 281.9,20.954 281.9,17.486 L281.9,1.2 L280.098,1.2 L280.098,17.384 C280.098,21.736 282.172,25.408 287.374,25.408 C291.522,25.408 293.834,23.3 295.092,21.6 L295.228,25 L296.826,25 L296.826,1.2 L295.058,1.2 Z M312.5,25.408 C317.906,25.408 320.014,22.212 320.32,18.506 L318.552,18.506 C318.348,21.532 316.784,23.946 312.568,23.946 C308.352,23.946 306.074,20.886 306.074,16.636 L306.074,9.53 C306.074,5.382 308.284,2.288 312.636,2.288 C316.818,2.288 318.28,4.804 318.484,7.66 L320.218,7.66 C320.082,4.26 317.974,0.792 312.636,0.792 C307.162,0.792 304.272,4.566 304.272,9.564 L304.272,16.568 C304.272,21.702 307.264,25.408 312.5,25.408 Z M339.496,1.2 L323.244,1.2 L323.244,2.73 L330.486,2.73 L330.486,25 L332.254,25 L332.254,2.73 L339.496,2.73 L339.496,1.2 Z M352.484,0.792 C346.194,0.792 343.44,4.974 343.44,10.584 L343.44,15.786 C343.44,21.056 346.126,25.408 352.484,25.408 C358.842,25.408 361.494,21.056 361.494,15.786 L361.494,10.584 C361.494,5.076 358.842,0.792 352.484,0.792 Z M352.484,2.288 C357.686,2.288 359.726,5.858 359.726,10.55 L359.726,15.82 C359.726,20.308 357.652,23.912 352.484,23.912 C347.282,23.912 345.242,20.308 345.242,15.82 L345.242,10.55 C345.242,5.722 347.384,2.288 352.484,2.288 Z M384.682,23.776 C383.696,23.776 383.152,23.47 382.676,22.518 L378.63,14.562 C381.656,13.746 383.458,11.74 383.458,8.918 L383.458,7.286 C383.458,3.58 380.364,1.2 375.502,1.2 L368.94,1.2 L368.94,25 L370.708,25 L370.708,14.936 L375.536,14.936 C375.978,14.936 376.42,14.902 376.862,14.868 L381.112,23.198 C381.86,24.694 382.812,25.238 384.172,25.238 C384.75,25.238 385.09,25.136 385.498,25 L385.498,23.674 C385.294,23.742 384.988,23.776 384.682,23.776 Z M370.708,13.44 L370.708,2.696 L375.468,2.696 C379.276,2.696 381.69,4.464 381.69,7.32 L381.69,8.884 C381.69,11.842 379.412,13.44 375.57,13.44 L370.708,13.44 Z"/>
    <g transform="translate(1 36)">
      <mask id="b" fill="white">
        <use xlink:href="#a"/>
      </mask>
      <path fill="#FFFFFF" d="M1.7688125 17.14L6.2018125 17.14 10.4576875 7.232C9.3478125 4.6448 8.16725 1.8768 8.16725 1.8768 8.1193125 1.7648 7.8105625.9376 7.2905625.8072 7.1946875.7776 7.0923125.7608 6.9866875.7624 6.589375.7656 6.2505625 1.084 6.0994375 1.4192L.2535 15.148C-.08125 16.0392.13325 17.14 1.7688125 17.14M5.8881875 17.8744L1.1895 17.8744C.3875625 17.8744 0 17.3744 0 17.3744.7775625 18.8128 3.209375 23.2192 3.209375 23.2192 3.5010625 23.7208 3.9024375 24 4.56625 24 5.8719375 24 7.9698125 22.6696 7.9698125 22.6696L15.7990625 17.8744 5.8881875 17.8744" mask="url(#b)"/>
      <path fill="#FFFFFF" d="M15.3245625,0.744 C15.263625,0.604 15.0028125,0.1088 14.278875,0.0936 C14.2861875,0.0936 14.2471875,0.0936 14.2471875,0.0936 L7.2288125,0.0936 C7.2288125,0.0936 8.2119375,0.144 8.6645,1.1672 C8.6645,1.1672 9.789,3.7904 10.8606875,6.2904 C13.7824375,13.1072 18.451875,24 18.451875,24 L25.298,24 C25.298,24 15.3863125,0.8872 15.3245625,0.744" mask="url(#b)"/>
      <path fill="#FFFFFF" d="M143.775719,16.5009585 C143.775719,17.2523962 143.232268,17.7910543 142.499042,17.7910543 C141.76869,17.7910543 141.222364,17.2523962 141.222364,16.5009585 C141.222364,15.7514377 141.76869,15.2089457 142.499042,15.2089457 C143.232268,15.2089457 143.775719,15.7514377 143.775719,16.5009585 Z M144,16.5009585 C144,15.671885 143.327157,15 142.499042,15 C141.673802,15 141,15.671885 141,16.5009585 C141,17.3300319 141.673802,18 142.499042,18 C143.327157,18 144,17.3300319 144,16.5009585 L144,16.5009585 Z"/>
      <path fill="#FFFFFF" d="M142.664948 16.2828096C142.664948 16.4245225 142.5 16.4393099 142.341924 16.4393099L142.201031 16.4393099 142.201031 16.1238447 142.408076 16.1238447C142.597938 16.1238447 142.664948 16.1879236 142.664948 16.2828096zM143 17L142.674399 16.6715958C142.617698 16.6136784 142.575601 16.5736291 142.512887 16.5397412 142.746564 16.5175601 142.882302 16.4269871 142.882302 16.2828096 142.882302 16.1343192 142.737973 16 142.456186 16L142 16 142 17 142.201031 17 142.201031 16.5520641C142.310137 16.5520641 142.352234 16.5754775 142.420962 16.6481824L142.757732 17 143 17 143 17zM36.9611973 6.91844114L34.6601996 12.4813178 39.2823725 12.4813178 36.9611973 6.91844114zM44 18L41.5073171 18 40.1445676 14.6452391 33.7972284 14.6452391 32.4150776 18 30 18 35.9073171 4 38.0919069 4 44 18 44 18z"/>
      <polyline fill="#FFFFFF" points="66.586 18 64.225 18 64.225 6.281 60 6.281 60 4 71 4 70.093 6.281 66.586 6.281 66.586 18"/>
      <polyline fill="#FFFFFF" points="112.997 6.281 105.484 6.281 105.484 9.842 110.296 9.842 110.296 12.043 105.484 12.043 105.484 15.763 113 15.763 113 18 103 18 103 4 112.997 4 112.997 6.281"/>
      <polygon fill="#FFFFFF" points="128 18 130 18 130 4 128 4"/>
      <path fill="#FFFFFF" d="M120.17307,6.18066311 C118.821712,6.18066311 117.67367,6.59861728 117.667555,7.5174903 C117.660676,8.59133509 118.318775,8.96467618 120.805945,9.79197497 C123.554521,10.7186748 125.014415,11.6586804 124.999893,13.9480361 C124.984606,16.5277682 123.037826,18 120.192943,18 C118.179665,18 116.375816,17.3315864 115,16.0910296 L115.855299,13.9683859 C117.103471,15.0406653 118.618397,15.7990878 120.253326,15.8069146 C121.683411,15.8139588 122.701515,15.1017148 122.701515,14.0443064 C122.701515,13.1614369 122.203164,12.57364 119.792427,11.7925196 C117.025508,10.8634717 115.353891,9.89372411 115.367649,7.58636664 C115.3837,5.29231483 117.485642,3.98679507 120.129502,4.00010072 C122.773363,4.01340638 124.261538,5.00193843 124.486255,5.13734306 L123.656943,7.06744602 C123.116553,6.76924276 121.933351,6.18066311 120.17307,6.18066311"/>
      <polyline fill="#FFFFFF" points="133.037 10.777 139.335 4 136.319 4 130 10.777 136.943 18 140 18 133.037 10.777"/>
      <path fill="#FFFFFF" d="M77.9992176 15.816363C75.3391081 15.816363 73.3987929 13.6601095 73.3987929 10.9992176 73.3987929 8.34067285 75.3391081 6.18520174 77.9992176 6.18520174 80.6585448 6.18520174 82.6019895 8.34067285 82.6019895 10.9992176 82.6019895 13.6601095 80.6585448 15.816363 77.9992176 15.816363zM77.9992176 4C74.1334526 4 71 7.13423494 71 10.9992176 71 14.8673298 74.1334526 18 77.9992176 18 81.8642003 18 85 14.8673298 85 10.9992176 85 7.13423494 81.8642003 4 77.9992176 4L77.9992176 4zM93.0776373 15.7608092L90.3740005 15.763237 90.3740005 6.28289017 93.0884705 6.28289017C95.7185969 6.28289017 97.6283209 8.23236994 97.6283209 10.9821965 97.6283209 13.7328324 95.7069899 15.7608092 93.0776373 15.7608092zM93.0776373 4L88 4 88 18 93.0776373 18C96.9001806 18 100 14.9806936 100 10.9821965 100 6.98289017 96.9001806 4 93.0776373 4L93.0776373 4zM57 11.67634C57 15.7837715 54.5511195 18 51 18 47.4488805 18 45 15.7837715 45 11.67634L45 4 47.4796331 4 47.4796331 11.9671105C47.4796331 14.3761238 48.9177232 15.7925344 51 15.7925344 53.0838953 15.7925344 54.5211762 14.3761238 54.5211762 11.9671105L54.5211762 4 57 4 57 11.67634"/>
    </g>
  </g>
</svg>
