<svg id="sbol-svg-no-symbol" xmlns="http://www.w3.org/2000/svg" width="54" height="54" viewBox="0 0 54 54">
  <path fill="#A0A3AE" fill-rule="evenodd" d="M21.5996094,14.7246094 L22.6015625,14.7246094 L22.6015625,15.6152344 C22.898439,15.248045 23.212889,14.9843758 23.5449219,14.8242188 C23.8769548,14.6640617 24.2460917,14.5839844 24.6523438,14.5839844 C25.5429732,14.5839844 26.1445297,14.8945281 26.4570312,15.515625 C26.6289071,15.8554704 26.7148438,16.3417937 26.7148438,16.9746094 L26.7148438,21 L25.6425781,21 L25.6425781,17.0449219 C25.6425781,16.6621075 25.5859381,16.3535168 25.4726562,16.1191406 C25.2851553,15.7285137 24.945315,15.5332031 24.453125,15.5332031 C24.2031238,15.5332031 23.9980477,15.5585935 23.8378906,15.609375 C23.5488267,15.6953129 23.294923,15.8671862 23.0761719,16.125 C22.9003897,16.3320323 22.7861331,16.5458973 22.7333984,16.7666016 C22.6806638,16.9873058 22.6542969,17.3027323 22.6542969,17.7128906 L22.6542969,21 L21.5996094,21 L21.5996094,14.7246094 Z M32.2021484,19.5263672 C32.4619154,18.9970677 32.5917969,18.4082064 32.5917969,17.7597656 C32.5917969,17.1738252 32.4980478,16.6972675 32.3105469,16.3300781 C32.0136704,15.7519502 31.5019568,15.4628906 30.7753906,15.4628906 C30.1308562,15.4628906 29.6621108,15.7089819 29.3691406,16.2011719 C29.0761704,16.6933618 28.9296875,17.2871059 28.9296875,17.9824219 C28.9296875,18.650394 29.0761704,19.207029 29.3691406,19.6523438 C29.6621108,20.0976585 30.1269499,20.3203125 30.7636719,20.3203125 C31.4628941,20.3203125 31.9423815,20.0556667 32.2021484,19.5263672 Z M32.8554688,15.3515625 C33.4140653,15.8906277 33.6933594,16.6835885 33.6933594,17.7304688 C33.6933594,18.7421926 33.4472681,19.5781217 32.9550781,20.2382812 C32.4628882,20.8984408 31.6992239,21.2285156 30.6640625,21.2285156 C29.8007769,21.2285156 29.1152369,20.9365264 28.6074219,20.3525391 C28.0996068,19.7685518 27.8457031,18.9843799 27.8457031,18 C27.8457031,16.9453072 28.1132786,16.1054719 28.6484375,15.4804688 C29.1835964,14.8554656 29.9023392,14.5429688 30.8046875,14.5429688 C31.6132853,14.5429688 32.2968722,14.8124973 32.8554688,15.3515625 Z M9.89550781,34.03125 C9.92675797,34.3828143 10.0146477,34.6523428 10.1591797,34.8398438 C10.424806,35.1796892 10.8857389,35.3496094 11.5419922,35.3496094 C11.9326191,35.3496094 12.2763657,35.2646493 12.5732422,35.0947266 C12.8701187,34.9248038 13.0185547,34.6621112 13.0185547,34.3066406 C13.0185547,34.037108 12.8994153,33.832032 12.6611328,33.6914062 C12.5087883,33.6054683 12.2080101,33.5058599 11.7587891,33.3925781 L10.9208984,33.1816406 C10.3857395,33.0488275 9.99121221,32.9003914 9.73730469,32.7363281 C9.28417742,32.4511704 9.05761719,32.0566431 9.05761719,31.5527344 C9.05761719,30.9589814 9.27148224,30.4785175 9.69921875,30.1113281 C10.1269553,29.7441388 10.7021448,29.5605469 11.4248047,29.5605469 C12.3701219,29.5605469 13.0517557,29.8378879 13.4697266,30.3925781 C13.7314466,30.7441424 13.8583985,31.1230448 13.8505859,31.5292969 L12.8544922,31.5292969 C12.8349608,31.2910144 12.7509773,31.0742197 12.6025391,30.8789062 C12.3603504,30.6015611 11.9404327,30.4628906 11.3427734,30.4628906 C10.9443339,30.4628906 10.6425792,30.5390617 10.4375,30.6914062 C10.2324208,30.8437508 10.1298828,31.0449206 10.1298828,31.2949219 C10.1298828,31.5683607 10.2646471,31.7871086 10.5341797,31.9511719 C10.6904305,32.0488286 10.9208969,32.1347653 11.2255859,32.2089844 L11.9228516,32.3789062 C12.6806679,32.5625009 13.1884753,32.7402335 13.4462891,32.9121094 C13.8564474,33.181642 14.0615234,33.6054659 14.0615234,34.1835938 C14.0615234,34.7421903 13.8496115,35.2246073 13.4257812,35.6308594 C13.001951,36.0371114 12.3564496,36.2402344 11.4892578,36.2402344 C10.5556594,36.2402344 9.89453319,36.0283224 9.50585938,35.6044922 C9.11718556,35.1806619 8.90917982,34.6562531 8.88183594,34.03125 L9.89550781,34.03125 Z M19.1884766,29.7246094 L20.3544922,29.7246094 C20.2060539,30.1269551 19.8759791,31.0449147 19.3642578,32.4785156 C18.9814434,33.556646 18.6611341,34.4355435 18.4033203,35.1152344 C17.7939423,36.7168049 17.3642591,37.6933576 17.1142578,38.0449219 C16.8642566,38.3964861 16.4345734,38.5722656 15.8251953,38.5722656 C15.6767571,38.5722656 15.5625004,38.5664063 15.4824219,38.5546875 C15.4023433,38.5429687 15.3037115,38.5214845 15.1865234,38.4902344 L15.1865234,37.5292969 C15.3701181,37.5800784 15.5029293,37.6113281 15.5849609,37.6230469 C15.6669926,37.6347657 15.7392575,37.640625 15.8017578,37.640625 C15.9970713,37.640625 16.1406245,37.6083988 16.2324219,37.5439453 C16.3242192,37.4794919 16.4013669,37.4003911 16.4638672,37.3066406 C16.4833985,37.2753905 16.5537103,37.1152358 16.6748047,36.8261719 C16.795899,36.5371079 16.8837888,36.3222663 16.9384766,36.1816406 L14.6181641,29.7246094 L15.8134766,29.7246094 L17.4951172,34.8339844 L19.1884766,29.7246094 Z M21.2685547,29.7246094 L22.3115234,29.7246094 L22.3115234,30.6152344 C22.5615247,30.3066391 22.7880849,30.082032 22.9912109,29.9414062 C23.3388689,29.7031238 23.7333962,29.5839844 24.1748047,29.5839844 C24.6748072,29.5839844 25.0771469,29.70703 25.3818359,29.953125 C25.5537118,30.0937507 25.7099602,30.3007799 25.8505859,30.5742188 C26.0849621,30.2382796 26.36035,29.9892586 26.6767578,29.8271484 C26.9931656,29.6650383 27.3486308,29.5839844 27.7431641,29.5839844 C28.5869183,29.5839844 29.1611313,29.8886688 29.4658203,30.4980469 C29.6298836,30.8261735 29.7119141,31.2675754 29.7119141,31.8222656 L29.7119141,36 L28.6162109,36 L28.6162109,31.640625 C28.6162109,31.2226542 28.5117198,30.9355477 28.3027344,30.7792969 C28.093749,30.6230461 27.8388687,30.5449219 27.5380859,30.5449219 C27.1240214,30.5449219 26.7675796,30.6835924 26.46875,30.9609375 C26.1699204,31.2382826 26.0205078,31.7011686 26.0205078,32.3496094 L26.0205078,36 L24.9482422,36 L24.9482422,31.9042969 C24.9482422,31.4785135 24.8974614,31.1679697 24.7958984,30.9726562 C24.6357414,30.679686 24.3369163,30.5332031 23.8994141,30.5332031 C23.5009746,30.5332031 23.1386735,30.6874985 22.8125,30.9960938 C22.4863265,31.304689 22.3232422,31.8632772 22.3232422,32.671875 L22.3232422,36 L21.2685547,36 L21.2685547,29.7246094 Z M31.1826172,27.3632812 L32.2080078,27.3632812 L32.2080078,30.4863281 C32.4384777,30.1855454 32.7138656,29.9560555 33.0341797,29.7978516 C33.3544938,29.6396476 33.7021466,29.5605469 34.0771484,29.5605469 C34.8584023,29.5605469 35.4921851,29.8290989 35.9785156,30.3662109 C36.4648462,30.903323 36.7080078,31.6953073 36.7080078,32.7421875 C36.7080078,33.73438 36.4677758,34.5585905 35.9873047,35.2148438 C35.5068335,35.871097 34.8408246,36.1992188 33.9892578,36.1992188 C33.5126929,36.1992188 33.1103532,36.0839855 32.7822266,35.8535156 C32.5869131,35.7167962 32.3779308,35.4980484 32.1552734,35.1972656 L32.1552734,36 L31.1826172,36 L31.1826172,27.3632812 Z M35.2050781,34.5878906 C35.4882827,34.1347634 35.6298828,33.5371131 35.6298828,32.7949219 C35.6298828,32.1347623 35.4882827,31.5878928 35.2050781,31.1542969 C34.9218736,30.720701 34.5048856,30.5039062 33.9541016,30.5039062 C33.4736304,30.5039062 33.0527362,30.6816388 32.6914062,31.0371094 C32.3300763,31.3925799 32.1494141,31.9785115 32.1494141,32.7949219 C32.1494141,33.3847686 32.2236321,33.8632794 32.3720703,34.2304688 C32.6494154,34.9218785 33.1669884,35.2675781 33.9248047,35.2675781 C34.49512,35.2675781 34.9218736,35.0410179 35.2050781,34.5878906 Z M41.8671875,34.5263672 C42.1269544,33.9970677 42.2568359,33.4082064 42.2568359,32.7597656 C42.2568359,32.1738252 42.1630869,31.6972675 41.9755859,31.3300781 C41.6787095,30.7519502 41.1669958,30.4628906 40.4404297,30.4628906 C39.7958952,30.4628906 39.3271499,30.7089819 39.0341797,31.2011719 C38.7412095,31.6933618 38.5947266,32.2871059 38.5947266,32.9824219 C38.5947266,33.650394 38.7412095,34.207029 39.0341797,34.6523438 C39.3271499,35.0976585 39.791989,35.3203125 40.4287109,35.3203125 C41.1279332,35.3203125 41.6074206,35.0556667 41.8671875,34.5263672 Z M42.5205078,30.3515625 C43.0791044,30.8906277 43.3583984,31.6835885 43.3583984,32.7304688 C43.3583984,33.7421926 43.1123071,34.5781217 42.6201172,35.2382812 C42.1279272,35.8984408 41.364263,36.2285156 40.3291016,36.2285156 C39.465816,36.2285156 38.780276,35.9365264 38.2724609,35.3525391 C37.7646459,34.7685518 37.5107422,33.9843799 37.5107422,33 C37.5107422,31.9453072 37.7783176,31.1054719 38.3134766,30.4804688 C38.8486355,29.8554656 39.5673783,29.5429688 40.4697266,29.5429688 C41.2783244,29.5429688 41.9619113,29.8124973 42.5205078,30.3515625 Z M44.6416016,27.3925781 L45.6962891,27.3925781 L45.6962891,36 L44.6416016,36 L44.6416016,27.3925781 Z"/>
</svg>
