<svg id="sbol-svg-rnaStability-large" xmlns="http://www.w3.org/2000/svg" width="54" height="54" viewBox="0 0 54 54">
  <g fill="none" fill-rule="evenodd">
    <path fill="#292D40" d="M29.4004098,37.8437117 L30.1823373,38.7115169 C29.3182612,38.9004468 28.4207565,39 27.5,39 C26.5792435,39 25.6817388,38.9004468 24.8176627,38.7115169 L25.5995902,37.8437117 C26.2177815,37.9465111 26.8526442,38 27.5,38 C28.1473558,38 28.7822185,37.9465111 29.4004098,37.8437117 Z M18.1360589,33.1773673 L16.9697197,33.2380817 C17.9450247,34.7591301 19.2408699,36.0549753 20.7619183,37.0302803 L20.8226327,35.8639411 C19.7856335,35.1231386 18.8768614,34.2143665 18.1360589,33.1773673 Z M16.1562883,24.5995902 L15.2884831,23.8176627 C15.0995532,24.6817388 15,25.5792435 15,26.5 C15,27.4207565 15.0995532,28.3182612 15.2884831,29.1823373 L16.1562883,28.4004098 C16.0534889,27.7822185 16,27.1473558 16,26.5 C16,25.8526442 16.0534889,25.2177815 16.1562883,24.5995902 Z M20.8226327,17.1360589 L20.7619183,15.9697197 C19.2408699,16.9450247 17.9450247,18.2408699 16.9697197,19.7619183 L18.1360589,19.8226327 C18.8768614,18.7856335 19.7856335,17.8768614 20.8226327,17.1360589 Z M29.4004098,15.1562883 L30.1823373,14.2884831 C29.3182612,14.0995532 28.4207565,14 27.5,14 C26.5792435,14 25.6817388,14.0995532 24.8176627,14.2884831 L25.5995902,15.1562883 C26.2177815,15.0534889 26.8526442,15 27.5,15 C28.1473558,15 28.7822185,15.0534889 29.4004098,15.1562883 Z M36.8639411,19.8226327 L38.0302803,19.7619183 C37.0549753,18.2408699 35.7591301,16.9450247 34.2380817,15.9697197 L34.1773673,17.1360589 C35.2143665,17.8768614 36.1231386,18.7856335 36.8639411,19.8226327 Z M38.8437117,28.4004098 L39.7115169,29.1823373 C39.9004468,28.3182612 40,27.4207565 40,26.5 C40,25.5792435 39.9004468,24.6817388 39.7115169,23.8176627 L38.8437117,24.5995902 C38.9465111,25.2177815 39,25.8526442 39,26.5 C39,27.1473558 38.9465111,27.7822185 38.8437117,28.4004098 Z M34.1773673,35.8639411 L34.2380817,37.0302803 C35.7591301,36.0549753 37.0549753,34.7591301 38.0302803,33.2380817 L36.8639411,33.1773673 C36.1231386,34.2143665 35.2143665,35.1231386 34.1773673,35.8639411 Z"/>
    <path stroke="#292D40" d="M27.5,51 L27.5,39" stroke-dasharray="3 4"/>
  </g>
</svg>
