<svg id="sbol-svg-ribonuclease-large" xmlns="http://www.w3.org/2000/svg" width="54" height="54" viewBox="0 0 54 54">
  <g fill="none" fill-rule="evenodd">
    <path stroke="#292D40" d="M27.5,50 L27.5,37" stroke-dasharray="5 3"/>
    <path fill="#292D40" d="M15,40.7071068 L20.6568542,35.0502525 L19.9497475,34.3431458 L14.2928932,40 L15,40.7071068 Z M24.8994949,30.8076118 L30.5563492,25.1507576 L29.8492424,24.4436508 L24.1923882,30.1005051 L24.8994949,30.8076118 Z M34.7989899,20.9081169 L40.4558441,15.2512627 L39.7487373,14.5441559 L34.0918831,20.2010101 L34.7989899,20.9081169 Z"/>
    <path fill="#292D40" d="M40.7071068,40 L35.0502525,34.3431458 L34.3431458,35.0502525 L40,40.7071068 L40.7071068,40 Z M30.8076118,30.1005051 L25.1507576,24.4436508 L24.4436508,25.1507576 L30.1005051,30.8076118 L30.8076118,30.1005051 Z M20.9081169,20.2010101 L15.2512627,14.5441559 L14.5441559,15.2512627 L20.2010101,20.9081169 L20.9081169,20.2010101 Z"/>
  </g>
</svg>
