<svg id="sbol-svg-ribonuclease" xmlns="http://www.w3.org/2000/svg" width="27" height="27" viewBox="0 0 27 27">
  <g fill="none" fill-rule="evenodd">
    <path stroke="#292D40" d="M13.5 21L13.5 18M13.5 26L13.5 23"/>
    <path fill="#292D40" d="M6.5,20.7071068 L10.0355339,17.1715729 L9.32842712,16.4644661 L5.79289322,20 L6.5,20.7071068 Z M12.1568542,15.0502525 L15.6923882,11.5147186 L14.9852814,10.8076118 L11.4497475,14.3431458 L12.1568542,15.0502525 Z M17.8137085,9.39339828 L21.2071068,6 L20.5,5.29289322 L17.1066017,8.6862915 L17.8137085,9.39339828 Z"/>
    <path fill="#292D40" d="M21.2071068,20 L17.6715729,16.4644661 L16.9644661,17.1715729 L20.5,20.7071068 L21.2071068,20 Z M15.5502525,14.3431458 L12.0147186,10.8076118 L11.3076118,11.5147186 L14.8431458,15.0502525 L15.5502525,14.3431458 Z M9.89339828,8.6862915 L6.5,5.29289322 L5.79289322,6 L9.1862915,9.39339828 L9.89339828,8.6862915 Z"/>
  </g>
</svg>
