<svg id="sbol-svg-rnaStability" xmlns="http://www.w3.org/2000/svg" width="27" height="27" viewBox="0 0 27 27">
  <g fill="none" fill-rule="evenodd" stroke="#292D40">
    <path d="M9.38805264 9.13054978C8.54225092 9.92680654 7.92764206 10.965899 7.65562092 12.1364323M7.65463518 14.8593189C7.92591385 16.0305439 8.54013393 17.0703791 9.38579378 17.8673226M11.738173 19.2371674C12.2952774 19.4080424 12.8868998 19.5 13.5 19.5L13.5 19.5C14.0989368 19.5 14.6773767 19.412242 15.2231624 19.2488832M17.5962982 17.8841303C18.4499575 17.0861805 19.0703775 16.0418225 19.3441768 14.8644377M19.3426878 12.1291754C19.0675705 10.9519958 18.4458748 9.90811061 17.5910621 9.11098114M15.2240858 7.75139324C14.6780291 7.58785697 14.0992746 7.5 13.5 7.5 12.8860452 7.5 12.2936281 7.59221411 11.7358435 7.76354761M13.5 22L13.5 20M13.5 26L13.5 24"/>
  </g>
</svg>
