<svg id="sbol-svg-rnaStability-large" xmlns="http://www.w3.org/2000/svg" width="54" height="54" viewBox="0 0 54 54">
  <g fill="none" fill-rule="evenodd" stroke="#292D40">
    <path d="M27.5 51L27.5 47M27.5 44L27.5 40M36.0496863 36.1188745C37.810192 34.4675969 39.0923166 32.3123377 39.6658169 29.88334M39.6659887 24.1173876C39.0931808 21.6906695 37.813087 19.537141 36.0552873 17.8863822M31.0599241 15.0142227C29.9316809 14.6796293 28.7368178 14.5 27.5 14.5 26.2366319 14.5 25.017039 14.6874242 23.8675096 15.0359844M18.9131366 17.9161382C17.167963 19.5664063 15.898113 21.7141328 15.3304695 24.1324346M15.328178 29.8577851C15.8945518 32.279483 17.1649881 34.4303152 18.9118523 36.0826472M23.8499557 38.9586787C25.0046205 39.3106623 26.2301991 39.5 27.5 39.5L27.5 39.5C28.7378574 39.5 29.9336895 39.3200686 31.0627688 38.9849333"/>
  </g>
</svg>
