<svg xmlns="http://www.w3.org/2000/svg" width="180" height="30" viewBox="0 0 180 30" xmlns:xlink="http://www.w3.org/1999/xlink">
  <defs>
    <polygon id="a" points="31.136 29.94 0 29.94 0 15.028 0 .117 31.136 .117 31.136 29.94"/>
  </defs>
  <g fill="none" fill-rule="evenodd">
    <mask id="b" fill="white">
      <use xlink:href="#a"/>
    </mask>
    <path fill="#1A1918" d="M2.177 21.425L7.633 21.425 12.871 9.04C11.505 5.806 10.052 2.346 10.052 2.346 9.993 2.206 9.613 1.172 8.973 1.009 8.855.972 8.729.951 8.599.953 8.11.957 7.693 1.355 7.507 1.774L.312 18.935C-.1 20.049.164 21.425 2.177 21.425M7.247 22.343L1.464 22.343C.477 22.343 0 21.718 0 21.718.957 23.516 3.95 29.024 3.95 29.024 4.309 29.651 4.803 30 5.62 30 7.227 30 9.809 28.337 9.809 28.337L19.445 22.343 7.247 22.343" mask="url(#b)"/>
    <path fill="#1A1918" d="M18.861,0.93 C18.786,0.755 18.465,0.136 17.574,0.117 C17.583,0.117 17.535,0.117 17.535,0.117 L8.897,0.117 C8.897,0.117 10.107,0.18 10.664,1.459 C10.664,1.459 12.048,4.738 13.367,7.863 C16.963,16.384 22.71,30 22.71,30 L31.136,30 C31.136,30 18.937,1.109 18.861,0.93" mask="url(#b)"/>
    <path fill="#1A1918" d="M179.507,20.721 C179.507,21.505 178.94,22.067 178.175,22.067 C177.413,22.067 176.843,21.505 176.843,20.721 C176.843,19.939 177.413,19.373 178.175,19.373 C178.94,19.373 179.507,19.939 179.507,20.721 Z M179.741,20.721 C179.741,19.856 179.039,19.155 178.175,19.155 C177.314,19.155 176.611,19.856 176.611,20.721 C176.611,21.586 177.314,22.285 178.175,22.285 C179.039,22.285 179.741,21.586 179.741,20.721 L179.741,20.721 Z"/>
    <path fill="#1A1918" d="M178.463 20.357C178.463 20.587 178.271 20.611 178.087 20.611L177.923 20.611 177.923 20.099 178.164 20.099C178.385 20.099 178.463 20.203 178.463 20.357zM178.853 21.521L178.474 20.988C178.408 20.894 178.359 20.829 178.286 20.774 178.558 20.738 178.716 20.591 178.716 20.357 178.716 20.116 178.548 19.898 178.22 19.898L177.689 19.898 177.689 21.521 177.923 21.521 177.923 20.794C178.05 20.794 178.099 20.832 178.179 20.95L178.571 21.521 178.853 21.521 178.853 21.521zM45.845 8.498L42.88 15.421 48.836 15.421 45.845 8.498zM54.915 22.289L51.703 22.289 49.947 18.114 41.768 18.114 39.987 22.289 36.875 22.289 44.487 4.866 47.302 4.866 54.915 22.289 54.915 22.289z"/>
    <polyline fill="#1A1918" points="82.96 22.289 79.895 22.289 79.895 7.808 74.408 7.808 74.408 4.989 88.692 4.989 87.514 7.808 82.96 7.808 82.96 22.289"/>
    <polyline fill="#1A1918" points="141.153 7.808 131.891 7.808 131.891 12.208 137.823 12.208 137.823 14.928 131.891 14.928 131.891 19.525 141.157 19.525 141.157 22.289 128.828 22.289 128.828 4.989 141.153 4.989 141.153 7.808"/>
    <polygon fill="#1A1918" points="159.975 22.289 162.875 22.289 162.875 4.989 159.975 4.989"/>
    <path fill="#1A1918" d="M150.55,7.487 C148.782,7.487 147.28,8.021 147.272,9.195 C147.263,10.567 148.124,11.044 151.378,12.101 C154.974,13.285 156.884,14.486 156.865,17.411 C156.845,20.707 154.298,22.588 150.576,22.588 C147.942,22.588 145.582,21.734 143.782,20.149 L144.901,17.437 C146.534,18.807 148.516,19.776 150.655,19.786 C152.526,19.795 153.858,18.885 153.858,17.534 C153.858,16.406 153.206,15.655 150.052,14.657 C146.432,13.47 144.245,12.231 144.263,9.283 C144.284,6.352 147.034,4.684 150.493,4.701 C153.952,4.718 155.899,5.981 156.193,6.154 L155.108,8.62 C154.401,8.239 152.853,7.487 150.55,7.487"/>
    <polyline fill="#1A1918" points="166.61 13.365 174.354 4.989 170.646 4.989 162.875 13.365 171.413 22.292 175.172 22.292 166.61 13.365"/>
    <path fill="#1A1918" d="M98.061 19.797C94.661 19.797 92.181 17.041 92.181 13.64 92.181 10.242 94.661 7.487 98.061 7.487 101.46 7.487 103.944 10.242 103.944 13.64 103.944 17.041 101.46 19.797 98.061 19.797zM98.061 4.694C93.12 4.694 89.115 8.7 89.115 13.64 89.115 18.584 93.12 22.588 98.061 22.588 103.001 22.588 107.009 18.584 107.009 13.64 107.009 8.7 103.001 4.694 98.061 4.694L98.061 4.694zM116.772 19.522L113.278 19.525 113.278 7.81 116.786 7.81C120.185 7.81 122.653 10.219 122.653 13.617 122.653 17.016 120.17 19.522 116.772 19.522zM116.772 4.989L110.21 4.989 110.21 22.289 116.772 22.289C121.712 22.289 125.718 18.558 125.718 13.617 125.718 8.675 121.712 4.989 116.772 4.989L116.772 4.989zM71.066 14.625C71.066 19.781 68.04 22.563 63.652 22.563 59.264 22.563 56.238 19.781 56.238 14.625L56.238 4.989 59.302 4.989 59.302 14.99C59.302 18.014 61.079 19.792 63.652 19.792 66.227 19.792 68.003 18.014 68.003 14.99L68.003 4.989 71.066 4.989 71.066 14.625"/>
  </g>
</svg>
