<svg xmlns="http://www.w3.org/2000/svg" width="199" height="30" viewBox="0 0 199 30" xmlns:xlink="http://www.w3.org/1999/xlink">
  <defs>
    <polygon id="a" points="15.568 .117 0 .117 0 29.94 31.136 29.94 31.136 .117 15.568 .117"/>
  </defs>
  <g fill="none" fill-rule="evenodd">
    <path fill="#000000" d="M5.239,10.932 C6.023,11.072 7.087,11.59 7.087,12.948 L7.087,13.508 C7.087,14.978 5.673,16 3.377,16 L0.563,16 L0.563,6.2 L3.419,6.2 C5.435,6.2 6.779,7.054 6.779,8.622 L6.779,9.238 C6.779,10.288 5.995,10.778 5.239,10.932 Z M3.447,7.292 L1.991,7.292 L1.991,10.526 L3.783,10.526 C4.721,10.526 5.351,10.078 5.351,9.21 L5.351,8.678 C5.351,7.74 4.609,7.292 3.447,7.292 Z M5.673,13.466 L5.673,12.948 C5.673,12.108 4.987,11.618 3.853,11.618 L1.991,11.618 L1.991,14.894 L3.419,14.894 C4.833,14.894 5.673,14.404 5.673,13.466 Z M15.921,6.2 L14.479,6.2 L12.085,10.806 L9.663,6.2 L8.165,6.2 L11.329,11.954 L11.329,16 L12.757,16 L12.757,11.954 L15.921,6.2 Z" opacity=".776"/>
    <g transform="translate(23)">
      <mask id="b" fill="white">
        <use xlink:href="#a"/>
      </mask>
      <path fill="#1A1918" d="M2.177 21.425L7.633 21.425 12.871 9.04C11.505 5.806 10.052 2.346 10.052 2.346 9.993 2.206 9.613 1.172 8.973 1.009 8.855.972 8.729.951 8.599.953 8.11.957 7.693 1.355 7.507 1.774L.312 18.935C-.1 20.049.164 21.425 2.177 21.425M7.247 22.343L1.464 22.343C.477 22.343 0 21.718 0 21.718.957 23.516 3.95 29.024 3.95 29.024 4.309 29.651 4.803 30 5.62 30 7.227 30 9.809 28.337 9.809 28.337L19.445 22.343 7.247 22.343" mask="url(#b)"/>
      <path fill="#1A1918" d="M18.861,0.93 C18.786,0.755 18.465,0.136 17.574,0.117 C17.583,0.117 17.535,0.117 17.535,0.117 L8.897,0.117 C8.897,0.117 10.107,0.18 10.664,1.459 C10.664,1.459 12.048,4.738 13.367,7.863 C16.963,16.384 22.71,30 22.71,30 L31.136,30 C31.136,30 18.937,1.109 18.861,0.93" mask="url(#b)"/>
      <path fill="#1A1918" d="M175.507,20.721 C175.507,21.505 174.94,22.067 174.175,22.067 C173.413,22.067 172.843,21.505 172.843,20.721 C172.843,19.939 173.413,19.373 174.175,19.373 C174.94,19.373 175.507,19.939 175.507,20.721 Z M175.741,20.721 C175.741,19.856 175.039,19.155 174.175,19.155 C173.314,19.155 172.611,19.856 172.611,20.721 C172.611,21.586 173.314,22.285 174.175,22.285 C175.039,22.285 175.741,21.586 175.741,20.721 L175.741,20.721 Z"/>
      <path fill="#1A1918" d="M174.463 20.357C174.463 20.587 174.271 20.611 174.087 20.611L173.923 20.611 173.923 20.099 174.164 20.099C174.385 20.099 174.463 20.203 174.463 20.357zM174.853 21.521L174.474 20.988C174.408 20.894 174.359 20.829 174.286 20.774 174.558 20.738 174.716 20.591 174.716 20.357 174.716 20.116 174.548 19.898 174.22 19.898L173.689 19.898 173.689 21.521 173.923 21.521 173.923 20.794C174.05 20.794 174.099 20.832 174.179 20.95L174.571 21.521 174.853 21.521 174.853 21.521zM41.845 8.498L38.88 15.421 44.836 15.421 41.845 8.498zM50.915 22.289L47.703 22.289 45.947 18.114 37.768 18.114 35.987 22.289 32.875 22.289 40.487 4.866 43.302 4.866 50.915 22.289 50.915 22.289z"/>
      <polyline fill="#1A1918" points="78.96 22.289 75.895 22.289 75.895 7.808 70.408 7.808 70.408 4.989 84.692 4.989 83.514 7.808 78.96 7.808 78.96 22.289"/>
      <polyline fill="#1A1918" points="137.153 7.808 127.891 7.808 127.891 12.208 133.823 12.208 133.823 14.928 127.891 14.928 127.891 19.525 137.157 19.525 137.157 22.289 124.828 22.289 124.828 4.989 137.153 4.989 137.153 7.808"/>
      <polygon fill="#1A1918" points="155.975 22.289 158.875 22.289 158.875 4.989 155.975 4.989"/>
      <path fill="#1A1918" d="M146.55,7.487 C144.782,7.487 143.28,8.021 143.272,9.195 C143.263,10.567 144.124,11.044 147.378,12.101 C150.974,13.285 152.884,14.486 152.865,17.411 C152.845,20.707 150.298,22.588 146.576,22.588 C143.942,22.588 141.582,21.734 139.782,20.149 L140.901,17.437 C142.534,18.807 144.516,19.776 146.655,19.786 C148.526,19.795 149.858,18.885 149.858,17.534 C149.858,16.406 149.206,15.655 146.052,14.657 C142.432,13.47 140.245,12.231 140.263,9.283 C140.284,6.352 143.034,4.684 146.493,4.701 C149.952,4.718 151.899,5.981 152.193,6.154 L151.108,8.62 C150.401,8.239 148.853,7.487 146.55,7.487"/>
      <polyline fill="#1A1918" points="162.61 13.365 170.354 4.989 166.646 4.989 158.875 13.365 167.413 22.292 171.172 22.292 162.61 13.365"/>
      <path fill="#1A1918" d="M94.061 19.797C90.661 19.797 88.181 17.041 88.181 13.64 88.181 10.242 90.661 7.487 94.061 7.487 97.46 7.487 99.944 10.242 99.944 13.64 99.944 17.041 97.46 19.797 94.061 19.797zM94.061 4.694C89.12 4.694 85.115 8.7 85.115 13.64 85.115 18.584 89.12 22.588 94.061 22.588 99.001 22.588 103.009 18.584 103.009 13.64 103.009 8.7 99.001 4.694 94.061 4.694L94.061 4.694zM112.772 19.522L109.278 19.525 109.278 7.81 112.786 7.81C116.185 7.81 118.653 10.219 118.653 13.617 118.653 17.016 116.17 19.522 112.772 19.522zM112.772 4.989L106.21 4.989 106.21 22.289 112.772 22.289C117.712 22.289 121.718 18.558 121.718 13.617 121.718 8.675 117.712 4.989 112.772 4.989L112.772 4.989zM67.066 14.625C67.066 19.781 64.04 22.563 59.652 22.563 55.264 22.563 52.238 19.781 52.238 14.625L52.238 4.989 55.302 4.989 55.302 14.99C55.302 18.014 57.079 19.792 59.652 19.792 62.227 19.792 64.003 18.014 64.003 14.99L64.003 4.989 67.066 4.989 67.066 14.625"/>
    </g>
  </g>
</svg>
