<svg xmlns="http://www.w3.org/2000/svg" width="30" height="30" viewBox="0 0 30 30">
  <g fill="none" fill-rule="evenodd">
    <path fill="#292C40" d="M25.5551665,10.7992211 C23.8798303,6.7915081 19.8793033,3.97058824 15.2106619,3.97058824 C9.03373794,3.97058824 4.02635168,8.90862408 4.02635168,15 C4.02635168,21.0913759 9.03373794,26.0294118 15.2106619,26.0294118 C19.8793033,26.0294118 23.8798303,23.2084919 25.5551665,19.2007789 L29,21.3397088 C26.5774161,26.4553119 21.3138057,30 15.2106619,30 C6.81004531,30 0,23.2842712 0,15 C0,6.71572875 6.81004531,0 15.2106619,0 C21.3138057,0 26.5774161,3.54468808 29,8.66029124 L25.5551665,10.7992211 Z"/>
    <rect width="10" height="4" x="20" y="13" fill="#5981FF"/>
  </g>
</svg>
