<svg xmlns="http://www.w3.org/2000/svg" width="14" height="14" viewBox="0 0 14 14">
  <g fill="none" fill-rule="evenodd">
    <circle cx="7" cy="7" r="7" fill="#3F82FF"/>
    <path fill="#FFFFFF" d="M2.20596963,4.39655295 C2.73117206,3.86551493 3.39933625,3.5999999 4.21048224,3.5999999 C5.29590061,3.5999999 6.08952794,3.95596511 6.59138805,4.66790619 C6.86857823,5.0676436 7.01738335,5.46883389 7.03780789,5.87148909 L5.68979504,5.87148909 C5.6022613,5.56220321 5.48992802,5.3287834 5.35279183,5.17122267 C5.10769736,4.89111471 4.74443779,4.75106282 4.26300222,4.75106282 C3.77281328,4.75106282 3.38621173,4.94874022 3.10318597,5.34410094 C2.82016021,5.73946167 2.67864946,6.29893976 2.67864946,7.02255201 C2.67864946,7.74616425 2.82818402,8.28813586 3.12725763,8.64848309 C3.42633124,9.00883032 3.80636786,9.18900123 4.26737889,9.18900123 C4.74006108,9.18900123 5.1004029,9.03436061 5.34841516,8.72507473 C5.48555136,8.55876062 5.59934351,8.30929321 5.68979504,7.976665 L7.02467789,7.976665 C6.90796624,8.67985271 6.60962656,9.25173123 6.12964988,9.69231772 C5.64967321,10.1329042 5.03475791,10.3531941 4.28488555,10.3531941 C3.35702791,10.3531941 2.62759102,10.0555839 2.096553,9.46035447 C1.56551498,8.86220724 1.29999995,8.04232018 1.29999995,7.00066868 C1.29999995,5.87440123 1.60198682,5.00637134 2.20596963,4.39655295 Z M7.96816169,4.39655295 C8.49336413,3.86551493 9.16152832,3.5999999 9.9726743,3.5999999 C11.0580927,3.5999999 11.85172,3.95596511 12.3535801,4.66790619 C12.6307703,5.0676436 12.7795754,5.46883389 12.8,5.87148909 L11.4519871,5.87148909 C11.3644534,5.56220321 11.2521201,5.3287834 11.1149839,5.17122267 C10.8698894,4.89111471 10.5066299,4.75106282 10.0251943,4.75106282 C9.53500534,4.75106282 9.14840379,4.94874022 8.86537803,5.34410094 C8.58235228,5.73946167 8.44084152,6.29893976 8.44084152,7.02255201 C8.44084152,7.74616425 8.59037608,8.28813586 8.88944969,8.64848309 C9.1885233,9.00883032 9.56855992,9.18900123 10.0295709,9.18900123 C10.5022531,9.18900123 10.862595,9.03436061 11.1106072,8.72507473 C11.2477434,8.55876062 11.3615356,8.30929321 11.4519871,7.976665 L12.78687,7.976665 C12.6701583,8.67985271 12.3718186,9.25173123 11.8918419,9.69231772 C11.4118653,10.1329042 10.79695,10.3531941 10.0470776,10.3531941 C9.11921997,10.3531941 8.38978308,10.0555839 7.85874506,9.46035447 C7.32770704,8.86220724 7.06219201,8.04232018 7.06219201,7.00066868 C7.06219201,5.87440123 7.36417889,5.00637134 7.96816169,4.39655295 Z"/>
  </g>
</svg>
