<svg xmlns="http://www.w3.org/2000/svg" width="32" height="32" viewBox="0 0 32 32">
  <path fill="#DFE2EC" fill-rule="evenodd" d="M8,0 C3.58222,0 0,3.58222 0,8 C0,12.41778 3.58222,16 8,16 C8.73778,16 9.33333,15.404444 9.33333,14.666667 C9.33333,14.32 9.2,14.008889 8.98667,13.76889 C8.78222,13.53778 8.64889,13.22667 8.64889,12.88889 C8.64889,12.15111 9.24444,12 9.98222,12 L11.55556,12 C14.00889,12 16,9.56444 16,7.11111 C16,3.18222 12.41778,0 8,0 Z M3,8 C2.37333,8 1.777778,7.40444 1.777778,6.66667 C1.777778,5.92889 2.37333,5.33333 3.11111,5.33333 C3.84889,5.33333 4.44444,5.92889 4.44444,6.66667 C4.44444,7.40444 3.84889,8 3,8 Z M6,4 C5.04,4.44444 4.44444,3.84889 4.44444,3.11111 C4.44444,2.37333 5.04,1.77778 5.77778,1.77778 C6.51556,1.77778 7.11111,2.37333 7.11111,3.11111 C7.11111,3.84889 6.51556,4 6,4 Z M10,4 C9.48444,4.44444 8.88889,3.84889 8.88889,3.11111 C8.88889,2.37333 9.48444,1.77778 10.22222,1.77778 C10.96,1.77778 11.55556,2.37333 11.55556,3.11111 C11.55556,3.84889 10.96,4 10,4 Z M13,8 C12.15111,8 11.55556,7.40444 11.55556,6.66667 C11.55556,5.92889 12.15111,5.33333 12.88889,5.33333 C13.62667,5.33333 14.22222,5.92889 14.22222,6.66667 C14.22222,7.40444 13.62667,8 13,8 Z" transform="translate(8 8)"/>
</svg>
