<svg xmlns="http://www.w3.org/2000/svg" width="24" height="24" viewBox="0 0 24 24">
  <g fill="#4B505E" fill-rule="evenodd" transform="translate(4 4)">
    <path d="M8,16 C3.581722,16 0,12.418278 0,8 C0,3.581722 3.581722,0 8,0 C12.418278,0 16,3.581722 16,8 C16,12.418278 12.418278,16 8,16 Z M8,14.5454545 C11.6149547,14.5454545 14.5454545,11.6149547 14.5454545,8 C14.5454545,4.38504527 11.6149547,1.45454545 8,1.45454545 C4.38504527,1.45454545 1.45454545,4.38504527 1.45454545,8 C1.45454545,11.6149547 4.38504527,14.5454545 8,14.5454545 Z"/>
    <path d="M8,15.6687101 C5.89709895,14.6852253 4.36363636,11.6240236 4.36363636,8 C4.36363636,4.37597641 5.89709895,1.31477471 8,0.331289919 L8,1.99918446 C6.71570561,3.00922222 5.81818182,5.31594599 5.81818182,8 C5.81818182,10.684054 6.71570561,12.9907778 8,14.0008155 L8,15.6687101 Z"/>
    <path d="M11.6363636,15.6687101 C9.53346258,14.6852253 8,11.6240236 8,8 C8,4.37597641 9.53346258,1.31477471 11.6363636,0.331289919 L11.6363636,1.99918446 C10.3520692,3.00922222 9.45454545,5.31594599 9.45454545,8 C9.45454545,10.684054 10.3520692,12.9907778 11.6363636,14.0008155 L11.6363636,15.6687101 Z" transform="matrix(-1 0 0 1 19.636 0)"/>
    <rect width="13.091" height="1.455" x="1.455" y="5.091"/>
    <rect width="13.091" height="1.455" x="1.455" y="9.455"/>
  </g>
</svg>
