<svg xmlns="http://www.w3.org/2000/svg" width="22" height="22" viewBox="0 0 22 22">
  <g fill="none" fill-rule="evenodd">
    <circle cx="11" cy="11" r="8" fill="#DFE2EC"/>
    <path fill="#FFFFFF" d="M10.0937521,12.9355537 L11.7949256,12.9355537 L11.7949256,12.5720551 C11.7949256,10.9290413 14.3684959,10.8272617 14.3684959,8.8498292 L14.3684959,8.41363085 C14.3684959,7.09049587 13.2198402,6 11.2714876,6 C9.81749311,6 8.85785675,6.49435813 8,7.17773554 L8.81423691,8.25369146 C9.61393388,7.70117355 10.1809917,7.39583471 11.1115482,7.39583471 C11.9984848,7.39583471 12.5073829,7.86111295 12.5073829,8.57357025 L12.5073829,8.92252893 C12.5073829,10.1729642 10.0937521,10.4637631 10.0937521,12.5138953 L10.0937521,12.9355537 Z M10.9370689,16.556 C11.5913664,16.556 12.0857245,16.0471019 12.0857245,15.4073444 C12.0857245,14.7821267 11.5913664,14.2586887 10.9370689,14.2586887 C10.3118512,14.2586887 9.80295317,14.7821267 9.80295317,15.4073444 C9.80295317,16.0471019 10.3118512,16.556 10.9370689,16.556 Z"/>
  </g>
</svg>
