<svg xmlns="http://www.w3.org/2000/svg" width="32" height="32" viewBox="0 0 32 32">
  <path fill="#DFE2EC" fill-rule="evenodd" d="M16,8 C11.584,8 8,11.584 8,16 C8,20.416 11.584,24 16,24 C20.416,24 24,20.416 24,16 C24,11.584 20.416,8 16,8 Z M17,22 L15,22 L15,20 L17,20 L17,22 Z M18.5172079,15.1756472 L17.709878,16.1586068 C17.133878,16.7426068 16.8,17.2 16.8,18 L15,18 C15,17.12 15.56,16.32 16.136,15.736 L17.128,14.728 C17.424,14.44 17.6,14.04 17.6,13.6 C17.6,12.72 16.88,12 16,12 C15.12,12 14.4,12.72 14.4,14 L12.8,14 C12.8,11.832 14.232,10.4 16,10.4 C17.768,10.4 19.2,11.832 19.2,13.6 C19.2,14.304 18.915269,14.6493124 18.5172079,15.1756472 Z"/>
</svg>
