<svg xmlns="http://www.w3.org/2000/svg" width="50" height="50" viewBox="0 0 50 50">
  <path fill="#1D222D" fill-rule="evenodd" d="M21,13 C20.96665,12.792 21.00265,12.408 21.00265,12 C21.00265,11.592 20.96665,11.208 20.91865,10.824 L23.45065,8.844 C23.67865,8.664 23.73865,8.34 23.59465,8.076 L21.19465,3.924 C21.05065,3.66 20.72665,3.564 20.46265,3.66 L17.47465,4.86 C16.85065,4.38 16.17865,3.984 15.44665,3.684 L14.99065,0.504 C14.95465,0.216 14.70265,0 14.40265,0 L9.60265,0 C9.30265,0 9.05065,0.216 9.01465,0.504 L8.55865,3.684 C7.82665,3.984 7.15465,4.392 6.53065,4.86 L3.54265,3.66 C3.26665,3.552 2.95465,3.66 2.81065,3.924 L0.41065,8.076 C0.25465,8.34 0.32665,8.664 0.55465,8.844 L3.08665,10.824 C3.03865,11.208 3.00265,11.604 3.00265,12 C3.00265,12.396 3.03865,12.792 3.08665,13.176 L0.55465,15.156 C0.32665,15.336 0.26665,15.66 0.41065,15.924 L2.81065,20.076 C2.95465,20.34 3.27865,20.436 3.54265,20.34 L6.53065,19.14 C7.15465,19.62 7.82665,20.016 8.55865,20.316 L9.01465,23.496 C9.05065,23.784 9.30265,24 9.60265,24 L14.40265,24 C14.70265,24 14.95465,23.784 14.99065,23.496 L15.44665,20.316 C16.17865,20.016 16.85065,19.608 17.47465,19.14 L20.46265,20.34 C20.73865,20.448 21.05065,20.34 21.19465,20.076 L23.59465,15.924 C23.73865,15.66 23.67865,15.336 23.45065,15.156 L21,13 Z M12,16 C9.68665,16.2 7.80265,14.316 7.80265,12 C7.80265,9.684 9.68665,7.8 12.00265,7.8 C14.31865,7.8 16.20265,9.684 16.20265,12 C16.20265,14.316 14.31865,16 12,16 Z" transform="translate(13 13)"/>
</svg>
