<svg xmlns="http://www.w3.org/2000/svg" width="50" height="50" viewBox="0 0 50 50">
  <path fill="#1D222D" fill-rule="evenodd" d="M20.2848789,32 C19.1152882,32.2 18,33.28 18,34.6 C18,35.92 19.1152882,37 20.4937343,37 C21.8721805,37 23,35.92 23,34.6 C23,33.28 21.8721805,32 20.2848789,32 Z M13,13 L13,15 L15.4,15 L19.72,24.508 L18.1,27.448 C17.908,27.784 17.8,28.18 17.8,28.6 C17.8,29.92 18.88,31 20.2,31 L35,31 L35,29 L20.704,29 C20.536,29 20.404,28.468 20.404,28.3 L20.44,28.156 L21.52,26 L30.46,26 C31.36,26 32.152,25.708 32.56,24.964 L36.856,17.176 C36.952,17.008 37,16.804 37,16.6 C37,15.94 36.46,15 35.8,15 L18.052,15 L16.924,13 L13,13 Z M32.2848789,32 C31.1152882,32.2 30,33.28 30,34.6 C30,35.92 31.1152882,37 32.4937343,37 C33.8721805,37 35,35.92 35,34.6 C35,33.28 33.8721805,32 32.2848789,32 Z"/>
</svg>
