<?xml version="1.0" encoding="UTF-8" standalone="no"?>
<!DOCTYPE svg PUBLIC "-//W3C//DTD SVG 1.1//EN" "http://www.w3.org/Graphics/SVG/1.1/DTD/svg11.dtd">
<svg xmlns="http://www.w3.org/2000/svg" xmlns:xl="http://www.w3.org/1999/xlink" version="1.1" viewBox="600 150 50 50" width="50pt" height="50pt" xmlns:dc="http://purl.org/dc/elements/1.1/">
  <metadata> Produced by OmniGraffle 7.0.3 
    <dc:date>2016-10-28 20:35:32 +0000</dc:date>
  </metadata>
  <defs/>
  <g stroke="none" stroke-opacity="1" stroke-dasharray="none" fill="none" fill-opacity="1">
    <title>icons</title>
    <g>
      <title>icons</title>
      <path d="M 634.14286 174.42857 L 632.4286 174.42857 L 632.4286 169.85714 C 632.4286 168.6 631.4 167.57143 630.14286 167.57143 L 625.5714 167.57143 L 625.5714 165.85714 C 625.5714 164.28 624.2914 163 622.7143 163 C 621.13714 163 619.85714 164.28 619.85714 165.85714 L 619.85714 167.57143 L 615.2857 167.57143 C 614.0286 167.57143 613.0114 168.6 613.0114 169.85714 L 613.0114 174.2 L 614.7143 174.2 C 616.41714 174.2 617.8 175.58286 617.8 177.28571 C 617.8 178.98857 616.41714 180.37143 614.7143 180.37143 L 613 180.37143 L 613 184.71429 C 613 185.97143 614.0286 187 615.2857 187 L 619.6286 187 L 619.6286 185.28571 C 619.6286 183.58286 621.0114 182.2 622.7143 182.2 C 624.41714 182.2 625.8 183.58286 625.8 185.28571 L 625.8 187 L 630.14286 187 C 631.4 187 632.4286 185.97143 632.4286 184.71429 L 632.4286 180.14286 L 634.14286 180.14286 C 635.72 180.14286 637 178.86286 637 177.28571 C 637 175.70857 635.72 174.42857 634.14286 174.42857 Z" fill="#1d222d"/>
    </g>
  </g>
</svg>
