<svg xmlns="http://www.w3.org/2000/svg" width="50" height="50" viewBox="0 0 50 50">
  <path fill="#1D222D" fill-rule="evenodd" d="M21,11 L19,11 L19,7 C19,5.74286 18.25714,5 17,5 L13,5 L13,3 C13,1.42286 11.57714,0 10,0 C8.42285,0 7,1.42286 7,3 L7,5 L2,5 C0.74286,5 0,5.74286 0,7 L0,11 L2,11 C3.70285,11 5,12.29715 5,14 C5,15.70286 3.70285,17 2,17 L0,17 L0,22 C0,23.25714 0.74286,24 2,24 L7,24 L7,22 C7,20.29715 8.29714,19 10,19 C11.70285,19 13,20.29715 13,22 L13,24 L17,24 C18.25714,24 19,23.25714 19,22 L19,17 L21,17 C22.57714,17 24,15.57715 24,14 C24,12.42286 22.72,11 21,11 Z" transform="translate(13 13)"/>
</svg>
