<svg xmlns="http://www.w3.org/2000/svg" width="50" height="50" viewBox="0 0 50 50">
  <path fill="#1D222D" fill-rule="evenodd" d="M16,0 C9.37333,0 4,5.37333 4,12 L0,12 L5.5,17 L11,12 L6.66667,12 C6.66667,6.84 10.84,2.66667 16,2.66667 C21.16,2.66667 25.33333,6.84 25.33333,12 C25.33333,17.16 21.16,21.33333 16,21.33333 C13.42667,21.33333 11.09333,20.28 9.41333,18.58667 L7.52,20.48 C9.69333,22.65333 12.68,24 16,24 C22.62667,24 28,18.62667 28,12 C28,5.37333 22.62667,0 16,0 Z M15,7 L15,13.33333 L20.37333,16.72 L21.33333,15.10667 L17,12.33333 L17,7 L15,7 Z" transform="translate(9 13)"/>
</svg>
