<?xml version="1.0" encoding="UTF-8" standalone="no"?>
<!DOCTYPE svg PUBLIC "-//W3C//DTD SVG 1.1//EN" "http://www.w3.org/Graphics/SVG/1.1/DTD/svg11.dtd">
<svg xmlns="http://www.w3.org/2000/svg" xmlns:xl="http://www.w3.org/1999/xlink" version="1.1" viewBox="600 250 50 50" width="50pt" height="50pt" xmlns:dc="http://purl.org/dc/elements/1.1/">
  <metadata> Produced by OmniGraffle 7.0.3 
    <dc:date>2016-10-28 20:35:32 +0000</dc:date>
  </metadata>
  <defs/>
  <g stroke="none" stroke-opacity="1" stroke-dasharray="none" fill="none" fill-opacity="1">
    <title>icons</title>
    <g>
      <title>icons</title>
      <path d="M 620.2 282.2 C 618.88 282.2 617.812 283.28 617.812 284.6 C 617.812 285.92 618.88 287 620.2 287 C 621.52 287 622.6 285.92 622.6 284.6 C 622.6 283.28 621.52 282.2 620.2 282.2 Z M 613 263 L 613 265.4 L 615.4 265.4 L 619.72 274.508 L 618.1 277.448 C 617.908 277.784 617.8 278.18 617.8 278.6 C 617.8 279.92 618.88 281 620.2 281 L 634.6 281 L 634.6 278.6 L 620.704 278.6 C 620.536 278.6 620.404 278.468 620.404 278.3 L 620.44 278.156 L 621.52 276.2 L 630.46 276.2 C 631.36 276.2 632.152 275.708 632.56 274.964 L 636.856 267.176 C 636.952 267.008 637 266.804 637 266.6 C 637 265.94 636.46 265.4 635.8 265.4 L 618.052 265.4 L 616.924 263 L 613 263 Z M 632.2 282.2 C 630.88 282.2 629.812 283.28 629.812 284.6 C 629.812 285.92 630.88 287 632.2 287 C 633.52 287 634.6 285.92 634.6 284.6 C 634.6 283.28 633.52 282.2 632.2 282.2 Z" fill="#1d222d"/>
    </g>
  </g>
</svg>
