<?xml version="1.0" encoding="UTF-8" standalone="no"?>
<!DOCTYPE svg PUBLIC "-//W3C//DTD SVG 1.1//EN" "http://www.w3.org/Graphics/SVG/1.1/DTD/svg11.dtd">
<svg xmlns="http://www.w3.org/2000/svg" xmlns:xl="http://www.w3.org/1999/xlink" version="1.1" viewBox="600 100 50 50" width="50pt" height="50pt" xmlns:dc="http://purl.org/dc/elements/1.1/">
  <metadata> Produced by OmniGraffle 7.0.3 
    <dc:date>2016-10-28 20:35:32 +0000</dc:date>
  </metadata>
  <defs/>
  <g stroke="none" stroke-opacity="1" stroke-dasharray="none" fill="none" fill-opacity="1">
    <title>icons</title>
    <g>
      <title>icons</title>
      <path d="M 633.91865 126.176 C 633.96665 125.792 634.00265 125.408 634.00265 125 C 634.00265 124.592 633.96665 124.208 633.91865 123.824 L 636.45065 121.844 C 636.67865 121.664 636.73865 121.34 636.59465 121.076 L 634.19465 116.924 C 634.05065 116.66 633.72665 116.564 633.46265 116.66 L 630.47465 117.86 C 629.85065 117.38 629.17865 116.984 628.44665 116.684 L 627.99065 113.504 C 627.95465 113.216 627.70265 113 627.40265 113 L 622.60265 113 C 622.30265 113 622.05065 113.216 622.01465 113.504 L 621.55865 116.684 C 620.82665 116.984 620.15465 117.392 619.53065 117.86 L 616.54265 116.66 C 616.26665 116.552 615.95465 116.66 615.81065 116.924 L 613.41065 121.076 C 613.25465 121.34 613.32665 121.664 613.55465 121.844 L 616.08665 123.824 C 616.03865 124.208 616.00265 124.604 616.00265 125 C 616.00265 125.396 616.03865 125.792 616.08665 126.176 L 613.55465 128.156 C 613.32665 128.336 613.26665 128.66 613.41065 128.924 L 615.81065 133.076 C 615.95465 133.34 616.27865 133.436 616.54265 133.34 L 619.53065 132.14 C 620.15465 132.62 620.82665 133.016 621.55865 133.316 L 622.01465 136.496 C 622.05065 136.784 622.30265 137 622.60265 137 L 627.40265 137 C 627.70265 137 627.95465 136.784 627.99065 136.496 L 628.44665 133.316 C 629.17865 133.016 629.85065 132.608 630.47465 132.14 L 633.46265 133.34 C 633.73865 133.448 634.05065 133.34 634.19465 133.076 L 636.59465 128.924 C 636.73865 128.66 636.67865 128.336 636.45065 128.156 L 633.91865 126.176 Z M 625.00265 129.2 C 622.68665 129.2 620.80265 127.316 620.80265 125 C 620.80265 122.684 622.68665 120.8 625.00265 120.8 C 627.31865 120.8 629.20265 122.684 629.20265 125 C 629.20265 127.316 627.31865 129.2 625.00265 129.2 Z" fill="#1d222d"/>
    </g>
  </g>
</svg>
