<svg xmlns="http://www.w3.org/2000/svg" width="50" height="50" viewBox="0 0 50 50">
  <path fill="#1D222D" fill-rule="evenodd" d="M25,13 C18.376,13 13,18.376 13,25 C13,31.624 18.376,37 25,37 C31.624,37 37,31.624 37,25 C37,18.376 31.624,13 25,13 Z M26,33 L24,33 L24,31 L26,31 L26,33 Z M29,24 L27.604,25.204 C26.74,26.08 26.2,26.8 26.2,29 L24,29 L24,28 C24,26.68 24.34,25.48 25.204,24.604 L26.692,23.092 C27.136,22.66 27.4,22.06 27.4,21.4 C27.4,20.08 26.32,19 25,19 C23.68,19 22.6,20.08 22.6,21 L20.2,21 C20.2,18.748 22.348,16.6 25,16.6 C27.652,16.6 29.8,18.748 29.8,21.4 C29.8,22.456 29.368,23.416 29,24 Z"/>
</svg>
