<svg xmlns="http://www.w3.org/2000/svg" width="50" height="50" viewBox="0 0 50 50" xmlns:xlink="http://www.w3.org/1999/xlink">
  <defs>
    <rect id="a" width="7.485" height="2" x="7.611" y="11.354"/>
    <mask id="b" width="7.485" height="2" x="0" y="0" fill="white">
      <use xlink:href="#a"/>
    </mask>
  </defs>
  <g fill="none" fill-rule="evenodd">
    <path fill="#1D222D" d="M16.2066116,29.161157 L16.2066116,35.6694215 L12.8719008,29.161157 L11,29.161157 L11,37.838843 L12.3760331,37.838843 L12.3760331,31.1198347 L15.785124,37.838843 L17.5950413,37.838843 L17.5950413,29.161157 L16.2066116,29.161157 Z M23.1239669,38 C24.2644628,38 25.1942149,37.553719 25.7768595,37.0950413 L25.1198347,36.1652893 C24.6239669,36.5 24.0165289,36.7975207 23.161157,36.7975207 C21.8966942,36.7975207 21.2644628,36.0785124 21.2644628,34.714876 L21.2644628,32.3719008 C21.2644628,30.9834711 21.9710744,30.2024793 23.2355372,30.2024793 C24.0289256,30.2024793 24.5619835,30.4752066 25.0578512,30.8347107 L25.8512397,29.9421488 C25.1818182,29.4090909 24.4132231,29 23.1859504,29 C21.0165289,29 19.7024793,30.338843 19.7024793,32.4586777 L19.7024793,34.7396694 C19.7024793,36.6983471 20.9421488,38 23.1239669,38 Z M31.8884298,33.338843 C32.4834711,33.1900826 33.1652893,32.7809917 33.1652893,31.8636364 L33.1652893,31.3181818 C33.1652893,29.9421488 31.9504132,29.161157 30.0909091,29.161157 L27.4132231,29.161157 L27.4132231,37.838843 L30.0785124,37.838843 C32.1363636,37.838843 33.4380165,36.9090909 33.4380165,35.5950413 L33.4380165,35.0991736 C33.4380165,33.9214876 32.5206612,33.4628099 31.8884298,33.338843 Z M30.1033058,30.3016529 C31.0206612,30.3016529 31.5909091,30.6487603 31.5909091,31.4049587 L31.5909091,31.8636364 C31.5909091,32.5702479 31.0950413,32.9173554 30.338843,32.9173554 L28.9752066,32.9173554 L28.9752066,30.3016529 L30.1033058,30.3016529 Z M31.8760331,35.5206612 C31.8760331,36.3016529 31.2066116,36.6983471 30.1033058,36.6983471 L28.9752066,36.6983471 L28.9752066,34.0206612 L30.4132231,34.0206612 C31.3677686,34.0206612 31.8760331,34.4173554 31.8760331,35.0743802 L31.8760331,35.5206612 Z M38.8305785,30.3636364 L38.8305785,29.161157 L35.0371901,29.161157 L35.0371901,30.3636364 L36.1528926,30.3636364 L36.1528926,36.6363636 L35.0371901,36.6363636 L35.0371901,37.838843 L38.8305785,37.838843 L38.8305785,36.6363636 L37.714876,36.6363636 L37.714876,30.3636364 L38.8305785,30.3636364 Z"/>
    <g transform="translate(19 9)">
      <path fill="#1D222D" d="M6,12 C9.3137085,12 12,9.3137085 12,6 C12,2.6862915 9.3137085,0 6,0 C2.6862915,0 0,2.6862915 0,6 C0,9.3137085 2.6862915,12 6,12 Z M6,10 C8.209139,10 10,8.209139 10,6 C10,3.790861 8.209139,2 6,2 C3.790861,2 2,3.790861 2,6 C2,8.209139 3.790861,10 6,10 Z"/>
      <use fill="#D8D8D8" stroke="#1D222D" stroke-width="2" mask="url(#b)" transform="rotate(45 11.354 12.354)" xlink:href="#a"/>
    </g>
  </g>
</svg>
