<svg xmlns="http://www.w3.org/2000/svg" width="50" height="50" viewBox="0 0 50 50" xmlns:xlink="http://www.w3.org/1999/xlink">
  <defs>
    <rect id="a" width="18" height="2" x="16" y="21"/>
    <mask id="c" width="18" height="2" x="0" y="0" fill="white">
      <use xlink:href="#a"/>
    </mask>
    <rect id="b" width="18" height="2" x="16" y="27"/>
    <mask id="d" width="18" height="2" x="0" y="0" fill="white">
      <use xlink:href="#b"/>
    </mask>
  </defs>
  <g fill="none" fill-rule="evenodd">
    <path fill="#1D222D" d="M25,36 C31.0751322,36 36,31.0751322 36,25 C36,18.9248678 31.0751322,14 25,14 C18.9248678,14 14,18.9248678 14,25 C14,31.0751322 18.9248678,36 25,36 Z M25,34 C29.9705627,34 34,29.9705627 34,25 C34,20.0294373 29.9705627,16 25,16 C20.0294373,16 16,20.0294373 16,25 C16,29.9705627 20.0294373,34 25,34 Z"/>
    <path fill="#1D222D" d="M25,14.4555236 C22.1085111,15.8078152 20,20.0169676 20,25 C20,29.9830324 22.1085111,34.1921848 25,35.5444764 L25,33.2511214 C23.2340952,31.8623194 22,28.6905743 22,25 C22,21.3094257 23.2340952,18.1376806 25,16.7488786 L25,14.4555236 Z"/>
    <path fill="#1D222D" d="M30,14.4555236 C27.1085111,15.8078152 25,20.0169676 25,25 C25,29.9830324 27.1085111,34.1921848 30,35.5444764 L30,33.2511214 C28.2340952,31.8623194 27,28.6905743 27,25 C27,21.3094257 28.2340952,18.1376806 30,16.7488786 L30,14.4555236 Z" transform="matrix(-1 0 0 1 55 0)"/>
    <use fill="#D8D8D8" stroke="#1D222D" stroke-width="2" mask="url(#c)" xlink:href="#a"/>
    <use fill="#D8D8D8" stroke="#1D222D" stroke-width="2" mask="url(#d)" xlink:href="#b"/>
  </g>
</svg>
