<?xml version="1.0" encoding="UTF-8" standalone="no"?>
<!DOCTYPE svg PUBLIC "-//W3C//DTD SVG 1.1//EN" "http://www.w3.org/Graphics/SVG/1.1/DTD/svg11.dtd">
<svg xmlns="http://www.w3.org/2000/svg" xmlns:xl="http://www.w3.org/1999/xlink" version="1.1" viewBox="50 400 50 50" width="50pt" height="50pt" xmlns:dc="http://purl.org/dc/elements/1.1/">
  <metadata> Produced by OmniGraffle 7.0.3 
    <dc:date>2016-10-28 20:35:32 +0000</dc:date>
  </metadata>
  <defs/>
  <g stroke="none" stroke-opacity="1" stroke-dasharray="none" fill="none" fill-opacity="1">
    <title>icons</title>
    <g>
      <title>icons</title>
      <path d="M 76.32843 412.55026 C 77.89053 414.11235 77.89053 416.645 76.32843 418.2071 C 74.76633 419.7692 72.23367 419.7692 70.67158 418.2071 C 69.10947 416.645 69.10947 414.11235 70.67158 412.55026 C 72.23367 410.98815 74.76633 410.98815 76.32843 412.55026 M 76.83337 420.3689 L 81.08579 424.6213 L 82.5 423.2071 L 78.288315 418.9954 C 80.068935 416.64417 79.88704 413.28044 77.74264 411.13605 C 75.39949 408.7929 71.60051 408.7929 69.257365 411.13605 C 66.91421 413.4792 66.91421 417.27817 69.257365 419.6213 C 71.31701 421.681 74.50153 421.93017 76.83337 420.3689 Z" fill="#1d222d"/>
    </g>
  </g>
</svg>
