<svg xmlns="http://www.w3.org/2000/svg" width="50" height="50" viewBox="0 0 50 50" xmlns:xlink="http://www.w3.org/1999/xlink">
  <defs>
    <rect id="a" width="7.485" height="2" x="7.611" y="11.354"/>
    <mask id="b" width="7.485" height="2" x="0" y="0" fill="white">
      <use xlink:href="#a"/>
    </mask>
  </defs>
  <g fill="none" fill-rule="evenodd">
    <path fill="#1D222D" d="M13.5868726,30.7258687 C14.0733591,30.7258687 14.4555985,30.3436293 14.4555985,29.8687259 C14.4555985,29.3822394 14.0733591,29 13.5868726,29 C13.1119691,29 12.7181467,29.3822394 12.7181467,29.8687259 C12.7181467,30.3436293 13.1119691,30.7258687 13.5868726,30.7258687 Z M12,31.6872587 L12,32.7528958 L12.9266409,32.7528958 L12.9266409,37.8494208 L14.3629344,37.8494208 L14.3629344,31.6872587 L12,31.6872587 Z M19.1930502,33.3667954 L19.1930502,34.4555985 L20.9073359,34.4555985 L20.9073359,36.030888 C20.5482625,36.5405405 19.992278,36.8764479 19.2277992,36.8764479 C18.1389961,36.8764479 17.5830116,36.2046332 17.5830116,35.1042471 L17.5830116,32.8108108 C17.5830116,31.4787645 18.1969112,30.7142857 19.4710425,30.7142857 C20.3281853,30.7142857 20.8378378,30.980695 21.2895753,31.5366795 L22.2393822,30.8648649 C21.6370656,30.0772201 20.7799228,29.5907336 19.4362934,29.5907336 C17.3513514,29.5907336 16.1235521,30.8880309 16.1235521,32.8803089 L16.1235521,35.1389961 C16.1235521,36.957529 17.3513514,38 18.9150579,38 C19.8416988,38 20.5482625,37.6409266 21.046332,37.1544402 L21.1737452,37.8494208 L22.3204633,37.8494208 L22.3204633,33.3667954 L19.1930502,33.3667954 Z M29.0849421,30.8648649 L29.0849421,29.7413127 L24.3474903,29.7413127 L24.3474903,37.8494208 L29.0849421,37.8494208 L29.0849421,36.7142857 L25.8069498,36.7142857 L25.8069498,34.2934363 L28.8301158,34.2934363 L28.8301158,33.1698842 L25.8069498,33.1698842 L25.8069498,30.8648649 L29.0849421,30.8648649 Z M36.984556,29.7413127 L36.984556,29.7644788 L34.957529,35.4633205 L32.976834,29.7413127 L31.0888031,29.7413127 L31.0888031,37.8494208 L32.4092664,37.8494208 L32.4092664,31.7799228 L34.1467181,36.6911197 L35.6872587,36.6911197 L35.6872587,36.6795367 L37.3783784,31.9305019 L37.3783784,37.8494208 L38.7799228,37.8494208 L38.7799228,29.7413127 L36.984556,29.7413127 Z"/>
    <g transform="translate(19 9)">
      <path fill="#1D222D" d="M6,12 C9.3137085,12 12,9.3137085 12,6 C12,2.6862915 9.3137085,0 6,0 C2.6862915,0 0,2.6862915 0,6 C0,9.3137085 2.6862915,12 6,12 Z M6,10 C8.209139,10 10,8.209139 10,6 C10,3.790861 8.209139,2 6,2 C3.790861,2 2,3.790861 2,6 C2,8.209139 3.790861,10 6,10 Z"/>
      <use fill="#D8D8D8" stroke="#1D222D" stroke-width="2" mask="url(#b)" transform="rotate(45 11.354 12.354)" xlink:href="#a"/>
    </g>
  </g>
</svg>
