<svg xmlns="http://www.w3.org/2000/svg" width="50" height="50" viewBox="0 0 50 50" xmlns:xlink="http://www.w3.org/1999/xlink">
  <defs>
    <rect id="a" width="7.485" height="2" x="7.611" y="11.354"/>
    <mask id="b" width="7.485" height="2" x="0" y="0" fill="white">
      <use xlink:href="#a"/>
    </mask>
  </defs>
  <g fill="none" fill-rule="evenodd">
    <path fill="#1D222D" d="M20.0702479,30.3636364 L20.0702479,29.161157 L15,29.161157 L15,37.838843 L20.0702479,37.838843 L20.0702479,36.6239669 L16.5619835,36.6239669 L16.5619835,34.0330579 L19.7975207,34.0330579 L19.7975207,32.8305785 L16.5619835,32.8305785 L16.5619835,30.3636364 L20.0702479,30.3636364 Z M25.0165289,33.0413223 L25.0165289,34.2066116 L26.8512397,34.2066116 L26.8512397,35.892562 C26.4669421,36.4380165 25.8719008,36.7975207 25.053719,36.7975207 C23.8884298,36.7975207 23.2933884,36.0785124 23.2933884,34.9008264 L23.2933884,32.446281 C23.2933884,31.0206612 23.9504132,30.2024793 25.3140496,30.2024793 C26.231405,30.2024793 26.7768595,30.4876033 27.2603306,31.0826446 L28.2768595,30.3636364 C27.6322314,29.5206612 26.714876,29 25.2768595,29 C23.0454545,29 21.731405,30.3884298 21.731405,32.5206612 L21.731405,34.9380165 C21.731405,36.8842975 23.0454545,38 24.7190083,38 C25.7107438,38 26.4669421,37.6157025 27,37.0950413 L27.1363636,37.838843 L28.3636364,37.838843 L28.3636364,33.0413223 L25.0165289,33.0413223 Z M35.7396694,30.3636364 L35.7396694,29.161157 L30.5330579,29.161157 L30.5330579,37.838843 L32.0950413,37.838843 L32.0950413,34.1446281 L35.2190083,34.1446281 L35.2190083,32.9421488 L32.0950413,32.9421488 L32.0950413,30.3636364 L35.7396694,30.3636364 Z"/>
    <g transform="translate(19 9)">
      <path fill="#1D222D" d="M6,12 C9.3137085,12 12,9.3137085 12,6 C12,2.6862915 9.3137085,0 6,0 C2.6862915,0 0,2.6862915 0,6 C0,9.3137085 2.6862915,12 6,12 Z M6,10 C8.209139,10 10,8.209139 10,6 C10,3.790861 8.209139,2 6,2 C3.790861,2 2,3.790861 2,6 C2,8.209139 3.790861,10 6,10 Z"/>
      <use fill="#D8D8D8" stroke="#1D222D" stroke-width="2" mask="url(#b)" transform="rotate(45 11.354 12.354)" xlink:href="#a"/>
    </g>
  </g>
</svg>
