<svg xmlns="http://www.w3.org/2000/svg" width="32" height="32" viewBox="0 0 32 32">
  <g fill="#DFE2EC" fill-rule="evenodd" transform="translate(7 9)">
    <polygon points="0 0 2 0 2 2 0 2"/>
    <polygon points="0 4 2 4 2 6 0 6"/>
    <polygon points="0 8 2 8 2 10 0 10"/>
    <polygon points="4 0 18 0 18 2 4 2"/>
    <polygon points="4 4 18 4 18 6 4 6"/>
    <polygon points="4 8 18 8 18 10 4 10"/>
    <polygon points="0 12 2 12 2 14 0 14"/>
    <polygon points="4 12 18 12 18 14 4 14"/>
  </g>
</svg>
