<svg xmlns="http://www.w3.org/2000/svg" width="32" height="32" viewBox="0 0 32 32">
  <g fill="#DFE2EC" fill-rule="evenodd" transform="translate(10 8)">
    <polygon points="1 5 3 5 3 9 1 9"/>
    <path d="M.923076923 7L11.0769231 7C11.58672 7 12 7.44772 12 8L12 13C12 13.552285 11.58672 14 11.0769231 14L.923076923 14C.41328 14 0 13.552285 0 13L0 8C0 7.44772.41328 7 .923076923 7zM11 5.0000025C11 3.7203925 10.51184 2.4407825 9.53553 1.4644725 7.58291-.4881575 4.41709-.4881575 2.46447 1.4644725 1.48816 2.4407825 1 3.7203925 1 5.0000025L3 5.0000025C3 4.2322325 3.29289 3.4644725 3.87868 2.8786825 5.05025 1.7071125 6.94975 1.7071125 8.12132 2.8786825 8.70711 3.4644725 9 4.2322325 9 5.0000025L11 5.0000025z"/>
    <polygon points="9 5 11 5 11 9 9 9"/>
  </g>
</svg>
