<svg xmlns="http://www.w3.org/2000/svg" width="50" height="50" viewBox="0 0 50 50">
  <g fill="#FFFFFF" fill-rule="evenodd" transform="translate(13 13)">
    <path d="M20.485277,3.514734 C15.79899,-1.171578 8.201022,-1.171578 3.514734,3.514734 C-1.171578,8.201022 -1.171578,15.79899 3.514734,20.485278 C8.201022,25.17159 15.79899,25.17159 20.485277,20.485278 C25.17159,15.79899 25.17159,8.201022 20.485277,3.514734 M17.656854,6.343158 C20.781062,9.46735 20.781062,14.532662 17.656854,17.656854 C14.532662,20.781062 9.46735,20.781062 6.343157,17.656854 C3.21895,14.532662 3.21895,9.46735 6.343157,6.343158 C9.46735,3.21895 14.532662,3.21895 17.656854,6.343158"/>
    <rect width="10" height="4" x="12" y="10"/>
  </g>
</svg>
