<svg xmlns="http://www.w3.org/2000/svg" width="50" height="50" viewBox="0 0 50 50">
  <defs></defs>
  <g fill="none" fill-rule="evenodd" transform="translate(13 13)">
    <path fill="#FFFFFF" d="M20.2678907,8.63937686 C18.9391758,5.43320648 15.766344,3.17647059 12.0636284,3.17647059 C7.16468871,3.17647059 3.1933134,7.12689927 3.1933134,12 C3.1933134,16.8731007 7.16468871,20.8235294 12.0636284,20.8235294 C15.766344,20.8235294 18.9391758,18.5667935 20.2678907,15.3606231 L23,17.071767 C21.0786403,21.1642495 16.9040528,24 12.0636284,24 C5.40107041,24 0,18.627417 0,12 C0,5.372583 5.40107041,0 12.0636284,0 C16.9040528,0 21.0786403,2.83575046 23,6.928233 L20.2678907,8.63937686 Z M15,11 L24,11 L24,13 L15,13 L15,11 Z"/>
    <rect width="9" height="2" x="15" y="11" fill="#3F82FF"/>
  </g>
</svg>
