<svg xmlns="http://www.w3.org/2000/svg" width="50" height="50" viewBox="0 0 50 50">
  <g fill="#FFFFFF" fill-rule="evenodd" transform="translate(10 10)">
    <path d="M27.6522542,12 L29.8830636,12 L29.8830636,12 C28.4931654,5.15214216 22.4385263,0 15.1799639,0 L15.0031108,0 C6.71734448,0 0,6.71572875 0,15 C0,23.2860927 6.71712151,30 15.0031108,30 L15.1799639,30 C22.4381472,30 28.4928104,24.846721 29.8829491,18 L27.6522202,18 C26.2981975,23.7334 21.1485149,28 15,28 C7.82029825,28 2,22.1812804 2,15 C2,7.82029825 7.81871963,2 15,2 C21.1473417,2 26.2981077,6.26569039 27.6522542,12 Z"/>
    <rect width="15" height="2" x="15" y="14" rx="1"/>
  </g>
</svg>
