<svg xmlns="http://www.w3.org/2000/svg" width="32" height="32" viewBox="0 0 32 32">
  <g fill="#DFE2EC" fill-rule="evenodd" transform="translate(14 7)">
    <path d="M3.414212.58579C4.195264 1.36684 4.195264 2.63316 3.414212 3.41421 2.633164 4.19526 1.366836 4.19526.585788 3.41421-.195264 2.63316-.195264 1.36684.585788.58579 1.366836-.19526 2.633164-.19526 3.414212.58579M3.414212 6.585788C4.195264 7.366836 4.195264 8.633164 3.414212 9.414212 2.633164 10.195264 1.366836 10.195264.585788 9.414212-.195264 8.633164-.195264 7.366836.585788 6.585788 1.366836 5.80474 2.633164 5.80474 3.414212 6.585788M3.414212 12.585788C4.195264 13.366836 4.195264 14.633164 3.414212 15.414212 2.633164 16.195264 1.366836 16.195264.585788 15.414212-.195264 14.633164-.195264 13.366836.585788 12.585788 1.366836 11.804736 2.633164 11.804736 3.414212 12.585788"/>
  </g>
</svg>
