<svg xmlns="http://www.w3.org/2000/svg" width="32" height="32" viewBox="0 0 32 32">
  <path fill="#DFE2EC" fill-rule="evenodd" d="M4.68421053,13.0332836 C3.66917293,12.8355025 3,13.5475145 3,14.4177513 C3,15.2879881 3.66917293,16 4.4962406,16 C5.32330827,16 6,15.2879881 6,14.4177513 C6,13.5475145 5.32330827,13.0332836 4.68421053,13.0332836 Z M0,0 L0,2 L1.6,2 L4.48,7.672 L3.4,9.632 C3.272,9.856 3.2,10.12 3.2,10.4 C3.2,11.28 3.92,12 4.8,12 L14,12 L14,10 L5.136,10 C5.024,10 4.936,10.312 4.936,10.2 L4.96,10.104 L5.68,9 L11.64,9 C12.24,9 12.768,8.472 13.04,7.976 L15.904,2.784 C15.968,2.672 16,2.536 16,2.4 C16,1.96 15.64,2 15.2,2 L3.368,2 L2.616,0 L0,0 Z M12.6842105,13.0332836 C11.6691729,12.8355025 11,13.5475145 11,14.4177513 C11,15.2879881 11.6691729,16 12.4962406,16 C13.3233083,16 14,15.2879881 14,14.4177513 C14,13.5475145 13.3233083,13.0332836 12.6842105,13.0332836 Z" transform="translate(8 8)"/>
</svg>
