<svg xmlns="http://www.w3.org/2000/svg" width="32" height="32" viewBox="0 0 32 32">
  <path fill="#DFE2EC" fill-rule="evenodd" d="M17.2295281,9.0077 C15.0540751,8.62155 12.7311031,9.2689 11.0502611,10.94975 C8.31657962,13.68342 8.31657962,18.115567 11.0502611,20.849235 C13.7839291,23.5829175 18.2160771,23.5829175 20.9497501,20.849235 C23.2402801,18.558715 23.6115901,15.075754 22.0636801,12.39863 L22.0636801,12.39863 L20.3312001,13.39887 C21.4368501,15.311108 21.1716301,17.798938 19.5355301,19.435023 C17.5829141,21.387653 14.4170931,21.387653 12.4644731,19.435023 C10.5118441,17.482403 10.5118441,14.316584 12.4644731,12.36396 C13.7223881,11.10604 15.4838011,10.6585 17.0999871,11.02133 L14.6360391,13.48528 L16.0502531,14.89949 L19.5857901,11.36396 L21.0000001,9.94974 L19.5857901,8.53553 L16.0502531,5 L14.6360391,6.41421 L17.2295281,9.0077 Z M18.1671471,9.94532 L18.1715731,9.94974 L18.1620811,9.95923 L18.1671471,9.94532 Z"/>
</svg>
