<svg xmlns="http://www.w3.org/2000/svg" width="26" height="26" viewBox="0 0 26 26">
  <path fill="#888B96" fill-rule="evenodd" d="M13,0 C5.82075,0 0,5.82075 0,13 C0,20.17925 5.82075,26 13,26 C20.17925,26 26,20.17925 26,13 C26,5.82075 20.17925,0 13,0 Z M17.8111,18.29967 C15.5339,18.45567 10.46175,18.45567 8.18783,18.29967 C5.72217,18.13067 5.4351,16.92383 5.41667,13 C5.4351,9.0686 5.7254,7.86933 8.18783,7.70033 C10.46175,7.54433 15.535,7.54433 17.8111,7.70033 C20.27783,7.86933 20.56383,9.07617 20.58333,13 C20.56383,16.9314 20.2746,18.13067 17.8111,18.29967 Z M10.83333,10.46283 L16.1601,12.99567 L10.83333,15.53717 L10.83333,10.46283 Z"/>
</svg>
