<svg xmlns="http://www.w3.org/2000/svg" width="26" height="26" viewBox="0 0 26 26">
  <path fill="#888B96" fill-rule="evenodd" d="M13,0 C5.82075,0 0,5.82075 0,13 C0,20.17925 5.82075,26 13,26 C20.17925,26 26,20.17925 26,13 C26,5.82075 20.17925,0 13,0 Z M19.5715,10.44875 C19.76975,14.8254 16.50567,19.70475 10.72717,19.70475 C8.97,19.70475 7.33525,19.1891 5.95833,18.30617 C7.60933,18.50117 9.25708,18.04183 10.56467,17.0181 C9.204,16.99317 8.05458,16.0929 7.657,14.85683 C8.14558,14.95 8.62658,14.9229 9.06317,14.80375 C7.56708,14.5026 6.53358,13.1549 6.56717,11.713 C6.9875,11.9459 7.46633,12.08567 7.97658,12.1019 C6.591,11.17567 6.19883,9.3459 7.0135,7.94733 C8.5475,9.83017 10.84092,11.0684 13.42683,11.1984 C12.97292,9.25275 14.4495,7.3775 16.4591,7.3775 C17.35283,7.3775 18.1621,7.7556 18.72975,8.3601 C19.43825,8.2214 20.1056,7.9614 20.70575,7.605 C20.47283,8.3319 19.9799,8.94075 19.3375,9.3264 C19.9669,9.2506 20.5671,9.08375 21.1239,8.83567 C20.7079,9.46183 20.1814,10.01 19.5715,10.44875 Z"/>
</svg>
