<svg xmlns="http://www.w3.org/2000/svg" width="26" height="26" viewBox="0 0 26 26">
  <path fill="#888B96" fill-rule="evenodd" d="M13,0 C5.82183,0 0,5.82075 0,13 C0,18.74383 3.7245,23.61667 8.89092,25.3359 C9.53983,25.45617 9.75,25.05317 9.75,24.71083 L9.75,22.29067 C6.13383,23.07717 5.38092,20.75667 5.38092,20.75667 C4.78942,19.2541 3.93683,18.85433 3.93683,18.85433 C2.75708,18.04725 4.02675,18.0646 4.02675,18.0646 C5.33217,18.1556 6.019,19.40467 6.019,19.40467 C7.17817,21.3915 9.05992,20.81733 9.802,20.48475 C9.91792,19.64517 10.25483,19.071 10.6275,18.7471 C7.74042,18.41667 4.70492,17.3019 4.70492,12.32183 C4.70492,10.9016 5.213,9.7424 6.04392,8.8324 C5.90958,8.50417 5.46433,7.1814 6.17067,5.39175 C6.17067,5.39175 7.26267,5.0429 9.74675,6.72425 C10.7835,6.4361 11.895,6.292 13,6.2866 C14.105,6.292 15.21758,6.4361 16.2565,6.72425 C18.73842,5.0429 19.82825,5.39175 19.82825,5.39175 C20.53567,7.1825 20.09042,8.50525 19.95608,8.8324 C20.79025,9.7424 21.294,10.90267 21.294,12.32183 C21.294,17.3149 18.25308,18.4145 15.35842,18.73625 C15.82425,19.13925 16.25,19.9301 16.25,21.1434 L16.25,24.71083 C16.25,25.0564 16.458,25.46267 17.11775,25.33483 C22.27983,23.6134 26,18.74167 26,13 C26,5.82075 20.17925,0 13,0 Z"/>
</svg>
