<svg xmlns="http://www.w3.org/2000/svg" width="26" height="26" viewBox="0 0 26 26">
  <path fill="#888B96" fill-rule="evenodd" d="M13,0 C5.82075,0 0,5.82075 0,13 C0,20.17925 5.82075,26 13,26 C20.17925,26 26,20.17925 26,13 C26,5.82075 20.17925,0 13,0 Z M16.25,8.66667 L14.7875,8.66667 C14.20467,8.66667 14.08333,8.9061 14.08333,9.5095 L14.08333,10.83333 L16.25,10.83333 L16.0236,13 L14.08333,13 L14.08333,20.58333 L10.83333,20.58333 L10.83333,13 L8.66667,13 L8.66667,10.83333 L10.83333,10.83333 L10.83333,8.333 C10.83333,6.4166 11.8419,5.41667 14.11475,5.41667 L16.25,5.41667 L16.25,8.66667 Z"/>
</svg>
