<svg xmlns="http://www.w3.org/2000/svg" width="28" height="28" viewBox="0 0 28 28">
  <path fill="#DFE2EC" fill-rule="evenodd" d="M14.30225,19.6255152 C14.0773588,19.465196 13.7126614,19.4652507 13.4878468,19.6255152 L8.14504839,23.4342587 C7.24573954,24.0753528 6.78768901,23.7347802 7.11750994,22.6877083 L9.08882474,16.4294386 C9.17180212,16.166013 9.05905247,15.819182 8.83716032,15.6548951 L3.5638145,11.7505583 C2.67619603,11.0933738 2.85855444,10.5524991 3.95629926,10.5426144 L10.5174372,10.4835345 C10.7936113,10.4810477 11.0886256,10.2666398 11.1763032,10.0048404 L13.2599947,3.78308404 C13.6107252,2.73582751 14.1814794,2.7421212 14.5301021,3.78308404 L16.6137935,10.0048404 C16.7015011,10.266729 16.9965796,10.4810486 17.2726596,10.4835345 L23.8337975,10.5426144 C24.9381793,10.5525589 25.1085664,11.0973233 24.2262823,11.7505583 L18.9529365,15.6548951 C18.7309687,15.819238 18.6183229,16.1661027 18.701272,16.4294386 L20.6725868,22.6877083 C21.0044019,23.7411108 20.5389527,24.0715 19.6450484,23.4342587 L14.30225,19.6255152 Z"/>
</svg>
