<svg xmlns="http://www.w3.org/2000/svg" width="32" height="32" viewBox="0 0 32 32">
  <g fill="none" fill-rule="evenodd">
    <g fill="#E5E7F0" transform="translate(8 8)">
      <path d="M5.42157288,11.75 L7.80025253,9.37132034 L13.4289322,15 L15.8431458,15 L15.8431458,14.5857864 L5.41421356,4.15685425 L4,5.57106781 L6.38603897,7.95710678 L4.00735931,10.3357864 L5.42157288,11.75 Z M15.8431458,1.32842712 L10.5073593,6.66421356 L9.09314575,5.25 L13.3431458,1 L15.8431458,1 L15.8431458,1.32842712 Z M7.84314575,8.5 C8.11928813,8.5 8.34314575,8.27614237 8.34314575,8 C8.34314575,7.72385763 8.11928813,7.5 7.84314575,7.5 C7.56700338,7.5 7.34314575,7.72385763 7.34314575,8 C7.34314575,8.27614237 7.56700338,8.5 7.84314575,8.5 Z"/>
      <path d="M3.5 7C5.43299662 7 7 5.43299662 7 3.5 7 1.56700338 5.43299662 0 3.5 0 1.56700338 0 0 1.56700338 0 3.5 0 5.43299662 1.56700338 7 3.5 7zM3.5 5.5C4.6045695 5.5 5.5 4.6045695 5.5 3.5 5.5 2.3954305 4.6045695 1.5 3.5 1.5 2.3954305 1.5 1.5 2.3954305 1.5 3.5 1.5 4.6045695 2.3954305 5.5 3.5 5.5zM3.5 16C5.43299662 16 7 14.4329966 7 12.5 7 10.5670034 5.43299662 9 3.5 9 1.56700338 9 0 10.5670034 0 12.5 0 14.4329966 1.56700338 16 3.5 16zM3.5 14.5C4.6045695 14.5 5.5 13.6045695 5.5 12.5 5.5 11.3954305 4.6045695 10.5 3.5 10.5 2.3954305 10.5 1.5 11.3954305 1.5 12.5 1.5 13.6045695 2.3954305 14.5 3.5 14.5z"/>
    </g>
  </g>
</svg>
