<?xml version="1.0" encoding="UTF-8" standalone="no"?>
<!DOCTYPE svg PUBLIC "-//W3C//DTD SVG 1.1//EN" "http://www.w3.org/Graphics/SVG/1.1/DTD/svg11.dtd">
<svg xmlns="http://www.w3.org/2000/svg" xmlns:xl="http://www.w3.org/1999/xlink" version="1.1" viewBox="360 0 32 32" width="32pt" height="32pt" xmlns:dc="http://purl.org/dc/elements/1.1/">
  <metadata> Produced by OmniGraffle 7.0.3 
    <dc:date>2016-10-28 20:35:33 +0000</dc:date>
  </metadata>
  <defs/>
  <g stroke="none" stroke-opacity="1" stroke-dasharray="none" fill="none" fill-opacity="1">
    <title>icons</title>
    <g>
      <title>icons</title>
      <path d="M 375 23 L 375 16.928932 L 372.46447 19.464466 L 371.05025 18.050253 L 374.5858 14.514719 L 376 13.100505 L 377.4142 14.514719 L 380.94975 18.050253 L 379.53553 19.464466 L 377 16.928932 L 377 23 L 382.125 23 C 384.54 23 386.5 21.04 386.5 18.625 C 386.5 16.315 384.70625 14.4425 382.43125 14.285 C 381.83625 11.26625 379.185 9 376 9 C 373.47125 9 371.275 10.435 370.18125 12.535 C 367.5475 12.815 365.5 15.04625 365.5 17.75 C 365.5 20.64625 367.85375 23 370.75 23 Z" fill="#1D222D"/>
      <path d="M 280 8 C 275.58222 8 272 11.582222 272 16 C 272 20.417778 275.58222 24 280 24 C 280.73778 24 281.33333 23.404444 281.33333 22.666667 C 281.33333 22.32 281.2 22.00889 280.98667 21.76889 C 280.78222 21.537778 280.6489 21.226667 280.6489 20.88889 C 280.6489 20.15111 281.24444 19.555556 281.98222 19.555556 L 283.55556 19.555556 C 286.0089 19.555556 288 17.564444 288 15.111111 C 288 11.182222 284.41778 8 280 8 Z M 275.1111 16 C 274.37333 16 273.77778 15.404444 273.77778 14.666667 C 273.77778 13.928889 274.37333 13.333333 275.1111 13.333333 C 275.8489 13.333333 276.44444 13.928889 276.44444 14.666667 C 276.44444 15.404444 275.8489 16 275.1111 16 Z M 277.77778 12.444444 C 277.04 12.444444 276.44444 11.848889 276.44444 11.111111 C 276.44444 10.373333 277.04 9.777778 277.77778 9.777778 C 278.51556 9.777778 279.1111 10.373333 279.1111 11.111111 C 279.1111 11.848889 278.51556 12.444444 277.77778 12.444444 Z M 282.22222 12.444444 C 281.48444 12.444444 280.8889 11.848889 280.8889 11.111111 C 280.8889 10.373333 281.48444 9.777778 282.22222 9.777778 C 282.96 9.777778 283.55556 10.373333 283.55556 11.111111 C 283.55556 11.848889 282.96 12.444444 282.22222 12.444444 Z M 284.8889 16 C 284.1511 16 283.55556 15.404444 283.55556 14.666667 C 283.55556 13.928889 284.1511 13.333333 284.8889 13.333333 C 285.62667 13.333333 286.22222 13.928889 286.22222 14.666667 C 286.22222 15.404444 285.62667 16 284.8889 16 Z" fill="#1D222D"/>
      <path d="M 317 16 L 315 16 L 315 16.000003 L 309 16.000003 L 309 14 L 309 14 C 309 13.232235 309.2929 12.46447 309.8787 11.878685 C 311.05025 10.707107 312.94975 10.707107 314.1213 11.878685 C 314.16094 11.918309 314.19923 11.958766 314.23617 12 L 316.58404 12 C 316.341 11.442597 315.9915 10.920455 315.53553 10.464472 C 313.5829 8.511843 310.4171 8.511843 308.46447 10.464472 C 307.48816 11.440782 307 12.720391 307 14 L 307 16.000004 C 306.4477 16 306 16.447717 306 17.000003 L 306 22 C 306 22.552285 306.4477 23 307 23 L 317 23 C 317.5523 23 318 22.552285 318 22 L 318 17.000003 C 318 16.447719 317.5523 16.000003 317 16.000003 Z" fill="#1D222D"/>
      <path d="M 340.8 20.8 C 339.92 20.8 339.208 21.52 339.208 22.4 C 339.208 23.28 339.92 24 340.8 24 C 341.68 24 342.4 23.28 342.4 22.4 C 342.4 21.52 341.68 20.8 340.8 20.8 Z M 336 8 L 336 9.6 L 337.6 9.6 L 340.48 15.672 L 339.4 17.632 C 339.272 17.856 339.2 18.12 339.2 18.4 C 339.2 19.28 339.92 20 340.8 20 L 350.4 20 L 350.4 18.4 L 341.136 18.4 C 341.024 18.4 340.936 18.312 340.936 18.2 L 340.96 18.104 L 341.68 16.8 L 347.64 16.8 C 348.24 16.8 348.768 16.472 349.04 15.976 L 351.904 10.784 C 351.968 10.672 352 10.536 352 10.4 C 352 9.96 351.64 9.6 351.2 9.6 L 339.368 9.6 L 338.616 8 L 336 8 Z M 348.8 20.8 C 347.92 20.8 347.208 21.52 347.208 22.4 C 347.208 23.28 347.92 24 348.8 24 C 349.68 24 350.4 23.28 350.4 22.4 C 350.4 21.52 349.68 20.8 348.8 20.8 Z" fill="#1D222D"/>
      <path d="M 412.9505 14.857143 L 408.00405 19.428571 L 403.0495 14.857143" stroke="#e6e8f1" stroke-linecap="butt" stroke-linejoin="miter" stroke-width="2"/>
      <line x1="408.00405" y1="8" x2="408.00405" y2="19.428571" stroke="#e6e8f1" stroke-linecap="butt" stroke-linejoin="round" stroke-width="2"/>
      <line x1="412.9505" y1="22.857143" x2="403.0495" y2="22.857143" stroke="#e6e8f1" stroke-linecap="butt" stroke-linejoin="round" stroke-width="2"/>
      <path d="M 433.85714 21.444444 C 433.85714 22.3 434.62857 23 435.57143 23 L 442.42857 23 C 443.37143 23 444.14286 22.3 444.14286 21.444444 L 444.14286 12.111111 L 433.85714 12.111111 L 433.85714 21.444444 Z M 445 9.777778 L 442 9.777778 L 441.14286 9 L 436.85714 9 L 436 9.777778 L 433 9.777778 L 433 11.333333 L 445 11.333333 L 445 9.777778 Z" fill="#1D222D"/>
      <circle cx="472" cy="10" r="2.0000032" fill="#1D222D"/>
      <circle cx="472" cy="16" r="2.0000032" fill="#1D222D"/>
      <circle cx="472" cy="22" r="2.0000032" fill="#1D222D"/>
    </g>
  </g>
</svg>
