<svg xmlns="http://www.w3.org/2000/svg" width="50" height="50" viewBox="0 0 50 50">
  <g fill="none" fill-rule="evenodd" transform="translate(11 11)">
    <path fill="#5E6372" d="M23.89948,4.10052 C29.36685,9.56785 29.36685,18.43215 23.89948,23.89948 C18.43215,29.366848 9.56785,29.366848 4.10052,23.89948 C-1.366848,18.43215 -1.366848,9.56785 4.10052,4.10052 C9.56785,-1.36685 18.43215,-1.36685 23.89948,4.10052"/>
    <path fill="#FFFFFF" d="M3,22.63266 C3.32127,23.0717 3.69592,23.49489 4.10052,23.89948 C6.83061,26.62959 10.40773,27.99643 13.98596,28 L14.01404,28 C17.59227,27.99643 21.16939,26.62959 23.89948,23.89948 C24.46133,23.33764 24.96543,22.73993 25.4118,22.11372 C24.56817,21.13329 22.35804,20.47702 20.17038,19.56563 C17.83734,18.59426 17.28485,18.25648 17.28485,18.25648 L17.26384,16.01954 L18.40783,13.24204 C18.95432,13.39976 19.52782,12.42687 19.55934,11.91335 C19.58939,11.42094 19.48427,10.04873 18.81771,10.18692 C18.95282,9.15548 19.05191,8.22614 19.00386,7.73527 C18.8312,5.93816 17.05964,4.042 14.33927,4.042 C11.61737,4.042 9.84881,5.93816 9.67466,7.73527 C9.62663,8.22614 9.72572,9.15548 9.86084,10.18692 C9.19574,10.04873 9.08916,11.42094 9.11916,11.91335 C9.1507,12.42687 9.7242,13.39976 10.27069,13.24204 C10.54244,15.34696 11.4162,16.01954 11.4162,16.01954 L11.39369,18.25648 L8.50963,19.56563 C6.1751,20.53696 3.82102,21.21852 3.1184,22.31153 C3.06554,22.39391 3.01846,22.50262 3,22.63264 L3,22.63266 Z"/>
  </g>
</svg>
