<svg xmlns="http://www.w3.org/2000/svg" width="32" height="32" viewBox="0 0 32 32">
  <g fill="#E5E7F0" fill-rule="evenodd" transform="translate(8 11)">
    <path d="M16.1289607,5 C14.6562581,2.03656304 11.5982016,0 8.06448035,0 C4.53075908,0 1.47270259,2.03656304 -2.00200967e-12,5 C1.47270259,7.96343696 4.53075908,10 8.06448035,10 C11.5982016,10 14.6562581,7.96343696 16.1289607,5 Z M8,9 C10.209139,9 12,7.209139 12,5 C12,2.790861 10.209139,1 8,1 C5.790861,1 4,2.790861 4,5 C4,7.209139 5.790861,9 8,9 Z"/>
    <circle cx="8" cy="5" r="2"/>
  </g>
</svg>
